<svg width="40" height="39" viewBox="0 0 40 39" fill="none" xmlns="http://www.w3.org/2000/svg">
<g opacity="0.36" filter="url(#filter0_f_48_266)">
<path d="M21.6171 30.7635L21.4308 33.744C21.4203 33.9132 21.1739 33.9208 21.1529 33.7526L20.7793 30.7635L20.0832 27.0745C20.0818 27.0669 20.0797 27.0594 20.0771 27.0521L19.1138 24.4375C19.1071 24.4193 19.0967 24.4027 19.0832 24.3888L17.1653 22.4023C17.1543 22.391 17.1414 22.3815 17.1273 22.3744L14.3723 20.997C14.3614 20.9915 14.3498 20.9875 14.3378 20.9851L11.2946 20.3626C11.2874 20.3611 11.2801 20.3602 11.2728 20.3599L5 20.0811L11.2838 19.5923L14.3348 19.0376C14.3488 19.0351 14.3622 19.0304 14.3748 19.0239L17.1298 17.5774C17.1423 17.5709 17.1537 17.5625 17.1637 17.5525L19.0862 15.63C19.0977 15.6185 19.1071 15.6051 19.114 15.5903L20.076 13.529C20.0794 13.5217 20.0821 13.5141 20.0842 13.5064L20.7762 10.9462C20.7782 10.9385 20.7797 10.9307 20.7804 10.9228L21.3378 5L21.6165 10.9213C21.6169 10.9302 21.6182 10.9391 21.6203 10.9477L22.2409 13.4991C22.2439 13.5117 22.2487 13.5237 22.2551 13.5349L23.4237 15.5972C23.4295 15.6074 23.4366 15.6169 23.4447 15.6253L25.3009 17.5503C25.3119 17.5617 25.3248 17.5712 25.339 17.5783L28.2306 19.0241C28.2435 19.0305 28.2572 19.0349 28.2714 19.0371L31.8108 19.5923L34.486 19.9044C34.6547 19.9241 34.6486 20.1712 34.4791 20.1825L31.8108 20.3604L28.2687 20.9854C28.2563 20.9876 28.2442 20.9915 28.2329 20.9969L25.3416 22.3737C25.3257 22.3813 25.3114 22.3917 25.2994 22.4046L23.4482 24.3929C23.4378 24.4042 23.4292 24.4171 23.423 24.4311L22.2527 27.0469C22.2479 27.0576 22.2445 27.0689 22.2425 27.0805L21.6171 30.7635Z" fill="#00FFD5"/>
<path d="M21.6171 30.7635L21.4308 33.744C21.4203 33.9132 21.1739 33.9208 21.1529 33.7526L20.7793 30.7635L20.0832 27.0745C20.0818 27.0669 20.0797 27.0594 20.0771 27.0521L19.1138 24.4375C19.1071 24.4193 19.0967 24.4027 19.0832 24.3888L17.1653 22.4023C17.1543 22.391 17.1414 22.3815 17.1273 22.3744L14.3723 20.997C14.3614 20.9915 14.3498 20.9875 14.3378 20.9851L11.2946 20.3626C11.2874 20.3611 11.2801 20.3602 11.2728 20.3599L5 20.0811L11.2838 19.5923L14.3348 19.0376C14.3488 19.0351 14.3622 19.0304 14.3748 19.0239L17.1298 17.5774C17.1423 17.5709 17.1537 17.5625 17.1637 17.5525L19.0862 15.63C19.0977 15.6185 19.1071 15.6051 19.114 15.5903L20.076 13.529C20.0794 13.5217 20.0821 13.5141 20.0842 13.5064L20.7762 10.9462C20.7782 10.9385 20.7797 10.9307 20.7804 10.9228L21.3378 5L21.6165 10.9213C21.6169 10.9302 21.6182 10.9391 21.6203 10.9477L22.2409 13.4991C22.2439 13.5117 22.2487 13.5237 22.2551 13.5349L23.4237 15.5972C23.4295 15.6074 23.4366 15.6169 23.4447 15.6253L25.3009 17.5503C25.3119 17.5617 25.3248 17.5712 25.339 17.5783L28.2306 19.0241C28.2435 19.0305 28.2572 19.0349 28.2714 19.0371L31.8108 19.5923L34.486 19.9044C34.6547 19.9241 34.6486 20.1712 34.4791 20.1825L31.8108 20.3604L28.2687 20.9854C28.2563 20.9876 28.2442 20.9915 28.2329 20.9969L25.3416 22.3737C25.3257 22.3813 25.3114 22.3917 25.2994 22.4046L23.4482 24.3929C23.4378 24.4042 23.4292 24.4171 23.423 24.4311L22.2527 27.0469C22.2479 27.0576 22.2445 27.0689 22.2425 27.0805L21.6171 30.7635Z" stroke="#00FFD5" stroke-width="0.279279"/>
</g>
<defs>
<filter id="filter0_f_48_266" x="0.670403" y="0.668084" width="38.3975" height="37.6653" filterUnits="userSpaceOnUse" color-interpolation-filters="sRGB">
<feFlood flood-opacity="0" result="BackgroundImageFix"/>
<feBlend mode="normal" in="SourceGraphic" in2="BackgroundImageFix" result="shape"/>
<feGaussianBlur stdDeviation="2.15943" result="effect1_foregroundBlur_48_266"/>
</filter>
</defs>
</svg>
