<svg width="24" height="23" viewBox="0 0 24 23" fill="none" xmlns="http://www.w3.org/2000/svg">
<g opacity="0.22" filter="url(#filter0_f_48_265)">
<path d="M12.8938 18.3395L12.7829 20.114C12.7766 20.2148 12.6299 20.2193 12.6174 20.1192L12.3949 18.3395L11.9805 16.1431C11.9796 16.1385 11.9784 16.1341 11.9768 16.1297L11.4033 14.573C11.3993 14.5622 11.3931 14.5523 11.3851 14.544L10.2431 13.3613C10.2366 13.3545 10.2289 13.3489 10.2205 13.3447L8.58023 12.5245C8.57373 12.5213 8.56683 12.5189 8.55971 12.5174L6.74776 12.1468C6.74349 12.1459 6.73915 12.1454 6.73479 12.1452L3 11.9792L6.74134 11.6882L8.55793 11.3579C8.56622 11.3564 8.57424 11.3537 8.5817 11.3497L10.2221 10.4886C10.2295 10.4847 10.2363 10.4797 10.2422 10.4737L11.3869 9.32906C11.3937 9.32221 11.3993 9.31421 11.4034 9.30543L11.9762 8.07811C11.9782 8.07378 11.9798 8.06927 11.9811 8.06465L12.3931 6.54033C12.3943 6.53578 12.3951 6.53113 12.3956 6.52643L12.7275 3L12.8934 6.52551C12.8936 6.53082 12.8944 6.53609 12.8957 6.54125L13.2652 8.06034C13.267 8.0678 13.2698 8.07499 13.2736 8.08167L13.9694 9.30956C13.9729 9.31563 13.977 9.32125 13.9819 9.32628L15.0871 10.4724C15.0936 10.4792 15.1013 10.4848 15.1098 10.4891L16.8314 11.3499C16.8391 11.3537 16.8473 11.3563 16.8557 11.3577L18.963 11.6882L20.5558 11.874C20.6563 11.8858 20.6527 12.0329 20.5517 12.0396L18.963 12.1455L16.8541 12.5177C16.8467 12.519 16.8395 12.5213 16.8328 12.5245L15.1113 13.3442C15.1019 13.3487 15.0933 13.355 15.0862 13.3626L13.984 14.5465C13.9778 14.5532 13.9727 14.5608 13.969 14.5692L13.2722 16.1266C13.2693 16.133 13.2673 16.1398 13.2661 16.1467L12.8938 18.3395Z" fill="#00FFD5"/>
<path d="M12.8938 18.3395L12.7829 20.114C12.7766 20.2148 12.6299 20.2193 12.6174 20.1192L12.3949 18.3395L11.9805 16.1431C11.9796 16.1385 11.9784 16.1341 11.9768 16.1297L11.4033 14.573C11.3993 14.5622 11.3931 14.5523 11.3851 14.544L10.2431 13.3613C10.2366 13.3545 10.2289 13.3489 10.2205 13.3447L8.58023 12.5245C8.57373 12.5213 8.56683 12.5189 8.55971 12.5174L6.74776 12.1468C6.74349 12.1459 6.73915 12.1454 6.73479 12.1452L3 11.9792L6.74134 11.6882L8.55793 11.3579C8.56622 11.3564 8.57424 11.3537 8.5817 11.3497L10.2221 10.4886C10.2295 10.4847 10.2363 10.4797 10.2422 10.4737L11.3869 9.32906C11.3937 9.32221 11.3993 9.31421 11.4034 9.30543L11.9762 8.07811C11.9782 8.07378 11.9798 8.06927 11.9811 8.06465L12.3931 6.54033C12.3943 6.53578 12.3951 6.53113 12.3956 6.52643L12.7275 3L12.8934 6.52551C12.8936 6.53082 12.8944 6.53609 12.8957 6.54125L13.2652 8.06034C13.267 8.0678 13.2698 8.07499 13.2736 8.08167L13.9694 9.30956C13.9729 9.31563 13.977 9.32125 13.9819 9.32628L15.0871 10.4724C15.0936 10.4792 15.1013 10.4848 15.1098 10.4891L16.8314 11.3499C16.8391 11.3537 16.8473 11.3563 16.8557 11.3577L18.963 11.6882L20.5558 11.874C20.6563 11.8858 20.6527 12.0329 20.5517 12.0396L18.963 12.1455L16.8541 12.5177C16.8467 12.519 16.8395 12.5213 16.8328 12.5245L15.1113 13.3442C15.1019 13.3487 15.0933 13.355 15.0862 13.3626L13.984 14.5465C13.9778 14.5532 13.9727 14.5608 13.969 14.5692L13.2722 16.1266C13.2693 16.133 13.2673 16.1398 13.2661 16.1467L12.8938 18.3395Z" stroke="#00FFD5" stroke-width="0.166282"/>
</g>
<defs>
<filter id="filter0_f_48_265" x="0.422224" y="0.420759" width="22.8616" height="22.4258" filterUnits="userSpaceOnUse" color-interpolation-filters="sRGB">
<feFlood flood-opacity="0" result="BackgroundImageFix"/>
<feBlend mode="normal" in="SourceGraphic" in2="BackgroundImageFix" result="shape"/>
<feGaussianBlur stdDeviation="1.28571" result="effect1_foregroundBlur_48_265"/>
</filter>
</defs>
</svg>
