<svg width="102" height="89" viewBox="0 0 102 89" fill="none" xmlns="http://www.w3.org/2000/svg">
<g opacity="0.22" filter="url(#filter0_f_103_902)">
<path d="M24.8938 27.3395L24.7829 29.114C24.7766 29.2148 24.6299 29.2193 24.6174 29.1192L24.3949 27.3395L23.9805 25.1431C23.9796 25.1385 23.9784 25.1341 23.9768 25.1297L23.4033 23.573C23.3993 23.5622 23.3931 23.5523 23.3851 23.544L22.2431 22.3613C22.2366 22.3545 22.2289 22.3489 22.2205 22.3447L20.5802 21.5245C20.5737 21.5213 20.5668 21.5189 20.5597 21.5174L18.7478 21.1468C18.7435 21.1459 18.7391 21.1454 18.7348 21.1452L15 20.9792L18.7413 20.6882L20.5579 20.3579C20.5662 20.3564 20.5742 20.3537 20.5817 20.3497L22.2221 19.4886C22.2295 19.4847 22.2363 19.4797 22.2422 19.4737L23.3869 18.3291C23.3937 18.3222 23.3993 18.3142 23.4034 18.3054L23.9762 17.0781C23.9782 17.0738 23.9798 17.0693 23.9811 17.0646L24.3931 15.5403C24.3943 15.5358 24.3951 15.5311 24.3956 15.5264L24.7275 12L24.8934 15.5255C24.8936 15.5308 24.8944 15.5361 24.8957 15.5412L25.2652 17.0603C25.267 17.0678 25.2698 17.075 25.2736 17.0817L25.9694 18.3096C25.9729 18.3156 25.977 18.3213 25.9819 18.3263L27.0871 19.4724C27.0936 19.4792 27.1013 19.4848 27.1098 19.4891L28.8314 20.3499C28.8391 20.3537 28.8473 20.3563 28.8557 20.3577L30.963 20.6882L32.5558 20.874C32.6563 20.8858 32.6527 21.0329 32.5517 21.0396L30.963 21.1455L28.8541 21.5177C28.8467 21.519 28.8395 21.5213 28.8328 21.5245L27.1113 22.3442C27.1019 22.3487 27.0933 22.355 27.0862 22.3626L25.984 23.5465C25.9778 23.5532 25.9727 23.5608 25.969 23.5692L25.2722 25.1266C25.2693 25.133 25.2673 25.1398 25.2661 25.1467L24.8938 27.3395Z" fill="#00FFD5"/>
<path d="M24.8938 27.3395L24.7829 29.114C24.7766 29.2148 24.6299 29.2193 24.6174 29.1192L24.3949 27.3395L23.9805 25.1431C23.9796 25.1385 23.9784 25.1341 23.9768 25.1297L23.4033 23.573C23.3993 23.5622 23.3931 23.5523 23.3851 23.544L22.2431 22.3613C22.2366 22.3545 22.2289 22.3489 22.2205 22.3447L20.5802 21.5245C20.5737 21.5213 20.5668 21.5189 20.5597 21.5174L18.7478 21.1468C18.7435 21.1459 18.7391 21.1454 18.7348 21.1452L15 20.9792L18.7413 20.6882L20.5579 20.3579C20.5662 20.3564 20.5742 20.3537 20.5817 20.3497L22.2221 19.4886C22.2295 19.4847 22.2363 19.4797 22.2422 19.4737L23.3869 18.3291C23.3937 18.3222 23.3993 18.3142 23.4034 18.3054L23.9762 17.0781C23.9782 17.0738 23.9798 17.0693 23.9811 17.0646L24.3931 15.5403C24.3943 15.5358 24.3951 15.5311 24.3956 15.5264L24.7275 12L24.8934 15.5255C24.8936 15.5308 24.8944 15.5361 24.8957 15.5412L25.2652 17.0603C25.267 17.0678 25.2698 17.075 25.2736 17.0817L25.9694 18.3096C25.9729 18.3156 25.977 18.3213 25.9819 18.3263L27.0871 19.4724C27.0936 19.4792 27.1013 19.4848 27.1098 19.4891L28.8314 20.3499C28.8391 20.3537 28.8473 20.3563 28.8557 20.3577L30.963 20.6882L32.5558 20.874C32.6563 20.8858 32.6527 21.0329 32.5517 21.0396L30.963 21.1455L28.8541 21.5177C28.8467 21.519 28.8395 21.5213 28.8328 21.5245L27.1113 22.3442C27.1019 22.3487 27.0933 22.355 27.0862 22.3626L25.984 23.5465C25.9778 23.5532 25.9727 23.5608 25.969 23.5692L25.2722 25.1266C25.2693 25.133 25.2673 25.1398 25.2661 25.1467L24.8938 27.3395Z" stroke="#00FFD5" stroke-width="0.166282"/>
</g>
<g opacity="0.36" filter="url(#filter1_f_103_902)">
<path d="M83.6171 80.7635L83.4308 83.744C83.4203 83.9132 83.1739 83.9208 83.1529 83.7526L82.7793 80.7635L82.0832 77.0745C82.0818 77.0669 82.0797 77.0594 82.0771 77.0521L81.1138 74.4375C81.1071 74.4193 81.0967 74.4027 81.0832 74.3888L79.1653 72.4023C79.1543 72.391 79.1414 72.3815 79.1273 72.3744L76.3723 70.997C76.3614 70.9915 76.3498 70.9875 76.3378 70.9851L73.2946 70.3626C73.2874 70.3611 73.2801 70.3602 73.2728 70.3599L67 70.0811L73.2838 69.5923L76.3348 69.0376C76.3488 69.0351 76.3622 69.0304 76.3748 69.0239L79.1298 67.5774C79.1423 67.5709 79.1537 67.5625 79.1637 67.5525L81.0862 65.63C81.0977 65.6185 81.1071 65.6051 81.114 65.5903L82.076 63.529C82.0794 63.5217 82.0821 63.5141 82.0842 63.5064L82.7762 60.9462C82.7782 60.9385 82.7797 60.9307 82.7804 60.9228L83.3378 55L83.6165 60.9213C83.6169 60.9302 83.6182 60.9391 83.6203 60.9477L84.2409 63.4991C84.2439 63.5117 84.2487 63.5237 84.2551 63.5349L85.4237 65.5972C85.4295 65.6074 85.4366 65.6169 85.4447 65.6253L87.3009 67.5503C87.3119 67.5617 87.3248 67.5712 87.339 67.5783L90.2306 69.0241C90.2435 69.0305 90.2572 69.0349 90.2714 69.0371L93.8108 69.5923L96.486 69.9044C96.6547 69.9241 96.6486 70.1712 96.4791 70.1825L93.8108 70.3604L90.2687 70.9854C90.2563 70.9876 90.2442 70.9915 90.2329 70.9969L87.3416 72.3737C87.3257 72.3813 87.3114 72.3917 87.2994 72.4046L85.4482 74.3929C85.4378 74.4042 85.4292 74.4171 85.423 74.4311L84.2527 77.0469C84.2479 77.0576 84.2445 77.0689 84.2425 77.0805L83.6171 80.7635Z" fill="#00FFD5"/>
<path d="M83.6171 80.7635L83.4308 83.744C83.4203 83.9132 83.1739 83.9208 83.1529 83.7526L82.7793 80.7635L82.0832 77.0745C82.0818 77.0669 82.0797 77.0594 82.0771 77.0521L81.1138 74.4375C81.1071 74.4193 81.0967 74.4027 81.0832 74.3888L79.1653 72.4023C79.1543 72.391 79.1414 72.3815 79.1273 72.3744L76.3723 70.997C76.3614 70.9915 76.3498 70.9875 76.3378 70.9851L73.2946 70.3626C73.2874 70.3611 73.2801 70.3602 73.2728 70.3599L67 70.0811L73.2838 69.5923L76.3348 69.0376C76.3488 69.0351 76.3622 69.0304 76.3748 69.0239L79.1298 67.5774C79.1423 67.5709 79.1537 67.5625 79.1637 67.5525L81.0862 65.63C81.0977 65.6185 81.1071 65.6051 81.114 65.5903L82.076 63.529C82.0794 63.5217 82.0821 63.5141 82.0842 63.5064L82.7762 60.9462C82.7782 60.9385 82.7797 60.9307 82.7804 60.9228L83.3378 55L83.6165 60.9213C83.6169 60.9302 83.6182 60.9391 83.6203 60.9477L84.2409 63.4991C84.2439 63.5117 84.2487 63.5237 84.2551 63.5349L85.4237 65.5972C85.4295 65.6074 85.4366 65.6169 85.4447 65.6253L87.3009 67.5503C87.3119 67.5617 87.3248 67.5712 87.339 67.5783L90.2306 69.0241C90.2435 69.0305 90.2572 69.0349 90.2714 69.0371L93.8108 69.5923L96.486 69.9044C96.6547 69.9241 96.6486 70.1712 96.4791 70.1825L93.8108 70.3604L90.2687 70.9854C90.2563 70.9876 90.2442 70.9915 90.2329 70.9969L87.3416 72.3737C87.3257 72.3813 87.3114 72.3917 87.2994 72.4046L85.4482 74.3929C85.4378 74.4042 85.4292 74.4171 85.423 74.4311L84.2527 77.0469C84.2479 77.0576 84.2445 77.0689 84.2425 77.0805L83.6171 80.7635Z" stroke="#00FFD5" stroke-width="0.279279"/>
</g>
<g opacity="0.62" filter="url(#filter2_f_103_902)">
<path d="M49.4757 70.6536L49.0444 77.5546C49.0199 77.9464 48.4496 77.9641 48.4009 77.5745L47.5358 70.6536L45.9242 62.112C45.9208 62.0943 45.916 62.077 45.9098 62.0601L43.6794 56.0061C43.6639 55.964 43.6398 55.9256 43.6086 55.8933L39.1678 51.2939C39.1423 51.2675 39.1126 51.2457 39.0798 51.2293L32.7009 48.0398C32.6756 48.0272 32.6488 48.0179 32.6211 48.0123L25.5746 46.5709C25.558 46.5675 25.5411 46.5654 25.5242 46.5647L11 45.9192L25.5497 44.7875L32.6142 43.5031C32.6464 43.4972 32.6776 43.4865 32.7066 43.4712L39.0858 40.1222C39.1146 40.107 39.1411 40.0876 39.1641 40.0645L43.6156 35.613C43.6423 35.5864 43.664 35.5553 43.68 35.5211L45.9073 30.7482C45.9152 30.7313 45.9216 30.7138 45.9265 30.6959L47.5286 24.768C47.5334 24.7502 47.5367 24.7322 47.5384 24.7139L48.8291 11L49.4743 24.7103C49.4753 24.7309 49.4782 24.7514 49.4831 24.7715L50.9201 30.6791C50.9271 30.7081 50.9382 30.7361 50.9529 30.7621L53.6588 35.5372C53.6722 35.5608 53.6885 35.5826 53.7074 35.6022L58.0054 40.0594C58.0309 40.0858 58.0607 40.1077 58.0935 40.1241L64.7888 43.4718C64.8186 43.4867 64.8504 43.4968 64.8833 43.502L73.0785 44.7875L79.2727 45.5102C79.6635 45.5558 79.6493 46.1278 79.2567 46.1539L73.0785 46.5658L64.8769 48.0132C64.8483 48.0182 64.8204 48.0271 64.7941 48.0396L58.0995 51.2275C58.0628 51.2451 58.0296 51.2693 58.0019 51.2991L53.7156 55.903C53.6913 55.929 53.6716 55.9588 53.6571 55.9913L50.9475 62.048C50.9363 62.0729 50.9284 62.099 50.9238 62.1259L49.4757 70.6536Z" fill="#00FFD5"/>
<path d="M49.4757 70.6536L49.0444 77.5546C49.0199 77.9464 48.4496 77.9641 48.4009 77.5745L47.5358 70.6536L45.9242 62.112C45.9208 62.0943 45.916 62.077 45.9098 62.0601L43.6794 56.0061C43.6639 55.964 43.6398 55.9256 43.6086 55.8933L39.1678 51.2939C39.1423 51.2675 39.1126 51.2457 39.0798 51.2293L32.7009 48.0398C32.6756 48.0272 32.6488 48.0179 32.6211 48.0123L25.5746 46.5709C25.558 46.5675 25.5411 46.5654 25.5242 46.5647L11 45.9192L25.5497 44.7875L32.6142 43.5031C32.6464 43.4972 32.6776 43.4865 32.7066 43.4712L39.0858 40.1222C39.1146 40.107 39.1411 40.0876 39.1641 40.0645L43.6156 35.613C43.6423 35.5864 43.664 35.5553 43.68 35.5211L45.9073 30.7482C45.9152 30.7313 45.9216 30.7138 45.9265 30.6959L47.5286 24.768C47.5334 24.7502 47.5367 24.7322 47.5384 24.7139L48.8291 11L49.4743 24.7103C49.4753 24.7309 49.4782 24.7514 49.4831 24.7715L50.9201 30.6791C50.9271 30.7081 50.9382 30.7361 50.9529 30.7621L53.6588 35.5372C53.6722 35.5608 53.6885 35.5826 53.7074 35.6022L58.0054 40.0594C58.0309 40.0858 58.0607 40.1077 58.0935 40.1241L64.7888 43.4718C64.8186 43.4867 64.8504 43.4968 64.8833 43.502L73.0785 44.7875L79.2727 45.5102C79.6635 45.5558 79.6493 46.1278 79.2567 46.1539L73.0785 46.5658L64.8769 48.0132C64.8483 48.0182 64.8204 48.0271 64.7941 48.0396L58.0995 51.2275C58.0628 51.2451 58.0296 51.2693 58.0019 51.2991L53.7156 55.903C53.6913 55.929 53.6716 55.9588 53.6571 55.9913L50.9475 62.048C50.9363 62.0729 50.9284 62.099 50.9238 62.1259L49.4757 70.6536Z" stroke="#00FFD5" stroke-width="0.646651"/>
</g>
<defs>
<filter id="filter0_f_103_902" x="12.4222" y="9.42076" width="22.8616" height="22.4258" filterUnits="userSpaceOnUse" color-interpolation-filters="sRGB">
<feFlood flood-opacity="0" result="BackgroundImageFix"/>
<feBlend mode="normal" in="SourceGraphic" in2="BackgroundImageFix" result="shape"/>
<feGaussianBlur stdDeviation="1.28571" result="effect1_foregroundBlur_103_902"/>
</filter>
<filter id="filter1_f_103_902" x="62.6704" y="50.6681" width="38.3975" height="37.6653" filterUnits="userSpaceOnUse" color-interpolation-filters="sRGB">
<feFlood flood-opacity="0" result="BackgroundImageFix"/>
<feBlend mode="normal" in="SourceGraphic" in2="BackgroundImageFix" result="shape"/>
<feGaussianBlur stdDeviation="2.15943" result="effect1_foregroundBlur_103_902"/>
</filter>
<filter id="filter2_f_103_902" x="0.974854" y="0.969727" width="88.907" height="87.2113" filterUnits="userSpaceOnUse" color-interpolation-filters="sRGB">
<feFlood flood-opacity="0" result="BackgroundImageFix"/>
<feBlend mode="normal" in="SourceGraphic" in2="BackgroundImageFix" result="shape"/>
<feGaussianBlur stdDeviation="5" result="effect1_foregroundBlur_103_902"/>
</filter>
</defs>
</svg>
