<svg width="90" height="89" viewBox="0 0 90 89" fill="none" xmlns="http://www.w3.org/2000/svg">
<g opacity="0.62" filter="url(#filter0_f_48_267)">
<path d="M49.4757 70.6536L49.0444 77.5546C49.0199 77.9464 48.4496 77.9641 48.4009 77.5745L47.5358 70.6536L45.9242 62.112C45.9208 62.0943 45.916 62.077 45.9098 62.0601L43.6794 56.0061C43.6639 55.964 43.6398 55.9256 43.6086 55.8933L39.1678 51.2939C39.1423 51.2675 39.1126 51.2457 39.0798 51.2293L32.7009 48.0398C32.6756 48.0272 32.6488 48.0179 32.6211 48.0123L25.5746 46.5709C25.558 46.5675 25.5411 46.5654 25.5242 46.5647L11 45.9192L25.5497 44.7875L32.6142 43.5031C32.6464 43.4972 32.6776 43.4865 32.7066 43.4712L39.0858 40.1222C39.1146 40.107 39.1411 40.0876 39.1641 40.0645L43.6156 35.613C43.6423 35.5864 43.664 35.5553 43.68 35.5211L45.9073 30.7482C45.9152 30.7313 45.9216 30.7138 45.9265 30.6959L47.5286 24.768C47.5334 24.7502 47.5367 24.7322 47.5384 24.7139L48.8291 11L49.4743 24.7103C49.4753 24.7309 49.4782 24.7514 49.4831 24.7715L50.9201 30.6791C50.9271 30.7081 50.9382 30.7361 50.9529 30.7621L53.6588 35.5372C53.6722 35.5608 53.6885 35.5826 53.7074 35.6022L58.0054 40.0594C58.0309 40.0858 58.0607 40.1077 58.0935 40.1241L64.7888 43.4718C64.8186 43.4867 64.8504 43.4968 64.8833 43.502L73.0785 44.7875L79.2727 45.5102C79.6635 45.5558 79.6493 46.1278 79.2567 46.1539L73.0785 46.5658L64.8769 48.0132C64.8483 48.0182 64.8204 48.0271 64.7941 48.0396L58.0995 51.2275C58.0628 51.2451 58.0296 51.2693 58.0019 51.2991L53.7156 55.903C53.6913 55.929 53.6716 55.9588 53.6571 55.9913L50.9475 62.048C50.9363 62.0729 50.9284 62.099 50.9238 62.1259L49.4757 70.6536Z" fill="#00FFD5"/>
<path d="M49.4757 70.6536L49.0444 77.5546C49.0199 77.9464 48.4496 77.9641 48.4009 77.5745L47.5358 70.6536L45.9242 62.112C45.9208 62.0943 45.916 62.077 45.9098 62.0601L43.6794 56.0061C43.6639 55.964 43.6398 55.9256 43.6086 55.8933L39.1678 51.2939C39.1423 51.2675 39.1126 51.2457 39.0798 51.2293L32.7009 48.0398C32.6756 48.0272 32.6488 48.0179 32.6211 48.0123L25.5746 46.5709C25.558 46.5675 25.5411 46.5654 25.5242 46.5647L11 45.9192L25.5497 44.7875L32.6142 43.5031C32.6464 43.4972 32.6776 43.4865 32.7066 43.4712L39.0858 40.1222C39.1146 40.107 39.1411 40.0876 39.1641 40.0645L43.6156 35.613C43.6423 35.5864 43.664 35.5553 43.68 35.5211L45.9073 30.7482C45.9152 30.7313 45.9216 30.7138 45.9265 30.6959L47.5286 24.768C47.5334 24.7502 47.5367 24.7322 47.5384 24.7139L48.8291 11L49.4743 24.7103C49.4753 24.7309 49.4782 24.7514 49.4831 24.7715L50.9201 30.6791C50.9271 30.7081 50.9382 30.7361 50.9529 30.7621L53.6588 35.5372C53.6722 35.5608 53.6885 35.5826 53.7074 35.6022L58.0054 40.0594C58.0309 40.0858 58.0607 40.1077 58.0935 40.1241L64.7888 43.4718C64.8186 43.4867 64.8504 43.4968 64.8833 43.502L73.0785 44.7875L79.2727 45.5102C79.6635 45.5558 79.6493 46.1278 79.2567 46.1539L73.0785 46.5658L64.8769 48.0132C64.8483 48.0182 64.8204 48.0271 64.7941 48.0396L58.0995 51.2275C58.0628 51.2451 58.0296 51.2693 58.0019 51.2991L53.7156 55.903C53.6913 55.929 53.6716 55.9588 53.6571 55.9913L50.9475 62.048C50.9363 62.0729 50.9284 62.099 50.9238 62.1259L49.4757 70.6536Z" stroke="#00FFD5" stroke-width="0.646651"/>
</g>
<defs>
<filter id="filter0_f_48_267" x="0.974854" y="0.969727" width="88.907" height="87.2113" filterUnits="userSpaceOnUse" color-interpolation-filters="sRGB">
<feFlood flood-opacity="0" result="BackgroundImageFix"/>
<feBlend mode="normal" in="SourceGraphic" in2="BackgroundImageFix" result="shape"/>
<feGaussianBlur stdDeviation="5" result="effect1_foregroundBlur_48_267"/>
</filter>
</defs>
</svg>
