<svg width="177" height="70" viewBox="0 0 177 70" fill="none" xmlns="http://www.w3.org/2000/svg">
<mask id="path-1-outside-1_103_889" maskUnits="userSpaceOnUse" x="8.76062" y="14.1057" width="147" height="42" fill="black">
<rect fill="white" x="8.76062" y="14.1057" width="147" height="42"/>
<path d="M38.2707 32.937H31.0073C30.4424 32.937 30.1599 32.6949 30.1599 32.2106C30.1599 31.9887 30.2305 31.7466 30.3718 31.4843L31.2192 30.0316C31.3604 29.7693 31.431 29.5272 31.431 29.3053C31.431 28.8211 31.1586 28.5789 30.6139 28.5789C30.2104 28.5789 29.7867 28.7202 29.3428 29.0026C28.8989 29.2851 28.5559 29.6281 28.3138 30.0316L26.6493 32.937C26.4879 33.1993 26.4072 33.4414 26.4072 33.6633C26.4072 34.1475 26.6896 34.3897 27.2546 34.3897H37.4233C37.9882 34.3897 38.2707 34.6318 38.2707 35.116C38.2707 35.3379 38.19 35.58 38.0286 35.8423L34.6693 41.653C34.4473 42.0566 34.1043 42.3996 33.6403 42.682C33.1964 42.9645 32.7828 43.1057 32.3995 43.1057H12.062C11.497 43.1057 11.2146 42.8636 11.2146 42.3794C11.2146 42.1574 11.2852 41.9153 11.4264 41.653L13.1212 38.7477C13.3432 38.3442 13.6761 38.0012 14.1199 37.7187C14.584 37.4362 15.0178 37.295 15.4213 37.295H22.6847C23.2294 37.295 23.5018 37.5371 23.5018 38.0213C23.5018 38.2433 23.4312 38.4854 23.29 38.7477L22.4426 40.2004C22.3013 40.4626 22.2307 40.7048 22.2307 40.9267C22.2307 41.4109 22.5031 41.653 23.0478 41.653C23.4514 41.653 23.8751 41.5118 24.3189 41.2293C24.783 40.9469 25.126 40.6039 25.3479 40.2004L27.0427 37.295C27.1839 37.0327 27.2546 36.7906 27.2546 36.5687C27.2546 36.0844 26.9721 35.8423 26.4072 35.8423H16.2384C15.6937 35.8423 15.4213 35.6002 15.4213 35.116C15.4213 34.8941 15.4919 34.6519 15.6331 34.3897L18.9925 28.5789C19.2144 28.1754 19.5473 27.8324 19.9912 27.55C20.4552 27.2675 20.889 27.1263 21.2925 27.1263H41.63C42.1748 27.1263 42.4471 27.3684 42.4471 27.8526C42.4471 28.0745 42.3765 28.3167 42.2353 28.5789L40.5405 31.4843C40.3186 31.8878 39.9756 32.2308 39.5115 32.5133C39.0676 32.7957 38.654 32.937 38.2707 32.937ZM54.2364 27.1263L39.3767 52.9113C39.0741 53.4359 38.7513 53.6981 38.4083 53.6981C38.2267 53.6981 38.0754 53.5973 37.9543 53.3955L33.9595 46.5861C33.8384 46.3843 33.7779 46.1321 33.7779 45.8295C33.7779 45.2444 33.9292 44.6996 34.2319 44.1952L48.2744 19.8629C48.4963 19.4594 48.8292 19.1164 49.2731 18.8339C49.7372 18.5514 50.1709 18.4102 50.5745 18.4102H57.8379C58.3826 18.4102 58.655 18.6523 58.655 19.1365C58.655 19.3585 58.5844 19.6006 58.4431 19.8629L56.7483 22.7682C56.6071 23.0305 56.5365 23.2726 56.5365 23.4946C56.5365 23.9788 56.819 24.2209 57.3839 24.2209C58.1102 24.2209 58.4734 24.3924 58.4734 24.7354C58.4734 25.038 58.2111 25.2802 57.6865 25.4617C57.2628 25.603 56.8795 25.6736 56.5365 25.6736C56.133 25.6736 55.7093 25.8148 55.2654 26.0973C54.8215 26.3798 54.4785 26.7227 54.2364 27.1263ZM57.0538 27.1263H77.3913C77.9361 27.1263 78.2084 27.3684 78.2084 27.8526C78.2084 28.0745 78.1378 28.3167 77.9966 28.5789L70.4306 41.653C70.2086 42.0566 69.8656 42.3996 69.4016 42.682C68.9577 42.9645 68.5441 43.1057 68.1608 43.1057H47.8233C47.2583 43.1057 46.9759 42.8636 46.9759 42.3794C46.9759 42.1574 47.0465 41.9153 47.1877 41.653L50.547 35.8423C50.7892 35.4388 51.1321 35.0958 51.576 34.8133C52.0199 34.5309 52.4436 34.3897 52.8471 34.3897H63.0159C63.4194 34.3897 63.8431 34.2484 64.2869 33.966C64.7308 33.6835 65.0738 33.3405 65.3159 32.937L66.9805 30.0316C67.1217 29.7693 67.1923 29.5272 67.1923 29.3053C67.1923 28.8211 66.9199 28.5789 66.3752 28.5789C65.9716 28.5789 65.5479 28.7202 65.1041 29.0026C64.6602 29.2851 64.3172 29.6281 64.0751 30.0316L63.2277 31.4843C63.0058 31.8878 62.6628 32.2308 62.1987 32.5133C61.7548 32.7957 61.3412 32.937 60.9579 32.937H53.6945C53.1296 32.937 52.8471 32.6949 52.8471 32.2106C52.8471 31.9887 52.9177 31.7466 53.059 31.4843L54.7538 28.5789C54.9757 28.1754 55.3086 27.8324 55.7525 27.55C56.2165 27.2675 56.6503 27.1263 57.0538 27.1263ZM61.1092 40.2004L62.804 37.295C62.9452 37.0327 63.0159 36.7906 63.0159 36.5687C63.0159 36.0844 62.7334 35.8423 62.1685 35.8423C61.7649 35.8423 61.3412 35.9836 60.8974 36.266C60.4535 36.5485 60.1206 36.8915 59.8986 37.295L58.2039 40.2004C58.0626 40.4626 57.992 40.7048 57.992 40.9267C57.992 41.4109 58.2644 41.653 58.8091 41.653C59.2127 41.653 59.6364 41.5118 60.0802 41.2293C60.5443 40.9469 60.8873 40.6039 61.1092 40.2004Z"/>
<path d="M82.0276 27.1263H102.365C102.91 27.1263 103.182 27.3684 103.182 27.8526C103.182 28.0745 103.112 28.3167 102.97 28.5789L101.276 31.4843C101.054 31.8878 100.711 32.2308 100.247 32.5133C99.8027 32.7957 99.3891 32.937 99.0058 32.937H91.7424C91.1775 32.937 90.895 32.6949 90.895 32.2106C90.895 31.9887 90.9656 31.7466 91.1068 31.4843L91.9542 30.0316C92.0955 29.7693 92.1661 29.5272 92.1661 29.3053C92.1661 28.8211 91.8937 28.5789 91.349 28.5789C90.9454 28.5789 90.5217 28.7202 90.0779 29.0026C89.634 29.2851 89.291 29.6281 89.0489 30.0316L82.3303 41.653C82.1083 42.0566 81.7653 42.3996 81.3013 42.682C80.8574 42.9645 80.4438 43.1057 80.0605 43.1057H72.7971C72.2321 43.1057 71.9497 42.8636 71.9497 42.3794C71.9497 42.1574 72.0203 41.9153 72.1615 41.653L79.7275 28.5789C79.9495 28.1754 80.2824 27.8324 80.7263 27.55C81.1903 27.2675 81.6241 27.1263 82.0276 27.1263ZM124.471 32.5133C124.027 32.7957 123.613 32.937 123.23 32.937C122.867 32.937 122.484 33.0076 122.08 33.1488C121.555 33.3304 121.293 33.5725 121.293 33.8752C121.293 34.2182 121.656 34.3897 122.383 34.3897C122.948 34.3897 123.23 34.6318 123.23 35.116C123.23 35.3379 123.149 35.58 122.988 35.8423L119.629 41.653C119.407 42.0566 119.064 42.3996 118.6 42.682C118.156 42.9645 117.742 43.1057 117.359 43.1057H97.0214C96.4564 43.1057 96.174 42.8636 96.174 42.3794C96.174 42.1574 96.2446 41.9153 96.3858 41.653L98.928 37.295C99.1499 36.8915 99.4828 36.5485 99.9267 36.266C100.371 35.9836 100.794 35.8423 101.198 35.8423H108.461C109.026 35.8423 109.309 36.0844 109.309 36.5687C109.309 36.7906 109.238 37.0327 109.097 37.295L107.402 40.2004C107.261 40.4626 107.19 40.7048 107.19 40.9267C107.19 41.4109 107.462 41.653 108.007 41.653C108.411 41.653 108.834 41.5118 109.278 41.2293C109.742 40.9469 110.085 40.6039 110.307 40.2004L112.819 35.8423C112.981 35.58 113.061 35.3379 113.061 35.116C113.061 34.6318 112.779 34.3897 112.214 34.3897C111.488 34.3897 111.124 34.2182 111.124 33.8752C111.124 33.5725 111.387 33.3304 111.911 33.1488C112.315 33.0076 112.698 32.937 113.061 32.937C113.445 32.937 113.858 32.7957 114.302 32.5133C114.766 32.2308 115.109 31.8878 115.331 31.4843L116.179 30.0316C116.32 29.7693 116.39 29.5272 116.39 29.3053C116.39 28.8211 116.118 28.5789 115.573 28.5789C115.17 28.5789 114.746 28.7202 114.302 29.0026C113.858 29.2851 113.515 29.6281 113.273 30.0316C113.051 30.4351 112.708 30.7781 112.244 31.0606C111.8 31.3431 111.377 31.4843 110.973 31.4843H103.71C103.165 31.4843 102.893 31.2422 102.893 30.758C102.893 30.536 102.963 30.2939 103.104 30.0316L103.952 28.5789C104.174 28.1754 104.507 27.8324 104.951 27.55C105.415 27.2675 105.848 27.1263 106.252 27.1263H126.589C127.134 27.1263 127.407 27.3684 127.407 27.8526C127.407 28.0745 127.336 28.3167 127.195 28.5789L125.5 31.4843C125.278 31.8878 124.935 32.2308 124.471 32.5133ZM149.429 16.8062L153.454 23.6459C153.576 23.8477 153.636 24.12 153.636 24.463C153.636 24.9674 153.515 25.4315 153.273 25.8552L144.133 41.653C143.911 42.0566 143.568 42.3996 143.104 42.682C142.66 42.9645 142.247 43.1057 141.863 43.1057H121.526C120.961 43.1057 120.678 42.8636 120.678 42.3794C120.678 42.1574 120.749 41.9153 120.89 41.653L128.456 28.5789C128.678 28.1754 129.011 27.8324 129.455 27.55C129.919 27.2675 130.353 27.1263 130.756 27.1263H140.925C141.308 27.1263 141.722 26.985 142.166 26.7026C142.63 26.4201 142.973 26.0771 143.195 25.6736L148.037 17.3207C148.34 16.7961 148.653 16.5338 148.975 16.5338C149.157 16.5338 149.308 16.6246 149.429 16.8062ZM134.812 40.2004L140.683 30.0316C140.824 29.7693 140.895 29.5272 140.895 29.3053C140.895 28.8211 140.622 28.5789 140.078 28.5789C139.674 28.5789 139.25 28.7202 138.807 29.0026C138.363 29.2851 138.02 29.6281 137.778 30.0316L131.906 40.2004C131.765 40.4626 131.695 40.7048 131.695 40.9267C131.695 41.4109 131.967 41.653 132.512 41.653C132.915 41.653 133.339 41.5118 133.783 41.2293C134.247 40.9469 134.59 40.6039 134.812 40.2004Z"/>
</mask>
<path d="M38.2707 32.937H31.0073C30.4424 32.937 30.1599 32.6949 30.1599 32.2106C30.1599 31.9887 30.2305 31.7466 30.3718 31.4843L31.2192 30.0316C31.3604 29.7693 31.431 29.5272 31.431 29.3053C31.431 28.8211 31.1586 28.5789 30.6139 28.5789C30.2104 28.5789 29.7867 28.7202 29.3428 29.0026C28.8989 29.2851 28.5559 29.6281 28.3138 30.0316L26.6493 32.937C26.4879 33.1993 26.4072 33.4414 26.4072 33.6633C26.4072 34.1475 26.6896 34.3897 27.2546 34.3897H37.4233C37.9882 34.3897 38.2707 34.6318 38.2707 35.116C38.2707 35.3379 38.19 35.58 38.0286 35.8423L34.6693 41.653C34.4473 42.0566 34.1043 42.3996 33.6403 42.682C33.1964 42.9645 32.7828 43.1057 32.3995 43.1057H12.062C11.497 43.1057 11.2146 42.8636 11.2146 42.3794C11.2146 42.1574 11.2852 41.9153 11.4264 41.653L13.1212 38.7477C13.3432 38.3442 13.6761 38.0012 14.1199 37.7187C14.584 37.4362 15.0178 37.295 15.4213 37.295H22.6847C23.2294 37.295 23.5018 37.5371 23.5018 38.0213C23.5018 38.2433 23.4312 38.4854 23.29 38.7477L22.4426 40.2004C22.3013 40.4626 22.2307 40.7048 22.2307 40.9267C22.2307 41.4109 22.5031 41.653 23.0478 41.653C23.4514 41.653 23.8751 41.5118 24.3189 41.2293C24.783 40.9469 25.126 40.6039 25.3479 40.2004L27.0427 37.295C27.1839 37.0327 27.2546 36.7906 27.2546 36.5687C27.2546 36.0844 26.9721 35.8423 26.4072 35.8423H16.2384C15.6937 35.8423 15.4213 35.6002 15.4213 35.116C15.4213 34.8941 15.4919 34.6519 15.6331 34.3897L18.9925 28.5789C19.2144 28.1754 19.5473 27.8324 19.9912 27.55C20.4552 27.2675 20.889 27.1263 21.2925 27.1263H41.63C42.1748 27.1263 42.4471 27.3684 42.4471 27.8526C42.4471 28.0745 42.3765 28.3167 42.2353 28.5789L40.5405 31.4843C40.3186 31.8878 39.9756 32.2308 39.5115 32.5133C39.0676 32.7957 38.654 32.937 38.2707 32.937ZM54.2364 27.1263L39.3767 52.9113C39.0741 53.4359 38.7513 53.6981 38.4083 53.6981C38.2267 53.6981 38.0754 53.5973 37.9543 53.3955L33.9595 46.5861C33.8384 46.3843 33.7779 46.1321 33.7779 45.8295C33.7779 45.2444 33.9292 44.6996 34.2319 44.1952L48.2744 19.8629C48.4963 19.4594 48.8292 19.1164 49.2731 18.8339C49.7372 18.5514 50.1709 18.4102 50.5745 18.4102H57.8379C58.3826 18.4102 58.655 18.6523 58.655 19.1365C58.655 19.3585 58.5844 19.6006 58.4431 19.8629L56.7483 22.7682C56.6071 23.0305 56.5365 23.2726 56.5365 23.4946C56.5365 23.9788 56.819 24.2209 57.3839 24.2209C58.1102 24.2209 58.4734 24.3924 58.4734 24.7354C58.4734 25.038 58.2111 25.2802 57.6865 25.4617C57.2628 25.603 56.8795 25.6736 56.5365 25.6736C56.133 25.6736 55.7093 25.8148 55.2654 26.0973C54.8215 26.3798 54.4785 26.7227 54.2364 27.1263ZM57.0538 27.1263H77.3913C77.9361 27.1263 78.2084 27.3684 78.2084 27.8526C78.2084 28.0745 78.1378 28.3167 77.9966 28.5789L70.4306 41.653C70.2086 42.0566 69.8656 42.3996 69.4016 42.682C68.9577 42.9645 68.5441 43.1057 68.1608 43.1057H47.8233C47.2583 43.1057 46.9759 42.8636 46.9759 42.3794C46.9759 42.1574 47.0465 41.9153 47.1877 41.653L50.547 35.8423C50.7892 35.4388 51.1321 35.0958 51.576 34.8133C52.0199 34.5309 52.4436 34.3897 52.8471 34.3897H63.0159C63.4194 34.3897 63.8431 34.2484 64.2869 33.966C64.7308 33.6835 65.0738 33.3405 65.3159 32.937L66.9805 30.0316C67.1217 29.7693 67.1923 29.5272 67.1923 29.3053C67.1923 28.8211 66.9199 28.5789 66.3752 28.5789C65.9716 28.5789 65.5479 28.7202 65.1041 29.0026C64.6602 29.2851 64.3172 29.6281 64.0751 30.0316L63.2277 31.4843C63.0058 31.8878 62.6628 32.2308 62.1987 32.5133C61.7548 32.7957 61.3412 32.937 60.9579 32.937H53.6945C53.1296 32.937 52.8471 32.6949 52.8471 32.2106C52.8471 31.9887 52.9177 31.7466 53.059 31.4843L54.7538 28.5789C54.9757 28.1754 55.3086 27.8324 55.7525 27.55C56.2165 27.2675 56.6503 27.1263 57.0538 27.1263ZM61.1092 40.2004L62.804 37.295C62.9452 37.0327 63.0159 36.7906 63.0159 36.5687C63.0159 36.0844 62.7334 35.8423 62.1685 35.8423C61.7649 35.8423 61.3412 35.9836 60.8974 36.266C60.4535 36.5485 60.1206 36.8915 59.8986 37.295L58.2039 40.2004C58.0626 40.4626 57.992 40.7048 57.992 40.9267C57.992 41.4109 58.2644 41.653 58.8091 41.653C59.2127 41.653 59.6364 41.5118 60.0802 41.2293C60.5443 40.9469 60.8873 40.6039 61.1092 40.2004Z" fill="#00FFD5"/>
<path d="M82.0276 27.1263H102.365C102.91 27.1263 103.182 27.3684 103.182 27.8526C103.182 28.0745 103.112 28.3167 102.97 28.5789L101.276 31.4843C101.054 31.8878 100.711 32.2308 100.247 32.5133C99.8027 32.7957 99.3891 32.937 99.0058 32.937H91.7424C91.1775 32.937 90.895 32.6949 90.895 32.2106C90.895 31.9887 90.9656 31.7466 91.1068 31.4843L91.9542 30.0316C92.0955 29.7693 92.1661 29.5272 92.1661 29.3053C92.1661 28.8211 91.8937 28.5789 91.349 28.5789C90.9454 28.5789 90.5217 28.7202 90.0779 29.0026C89.634 29.2851 89.291 29.6281 89.0489 30.0316L82.3303 41.653C82.1083 42.0566 81.7653 42.3996 81.3013 42.682C80.8574 42.9645 80.4438 43.1057 80.0605 43.1057H72.7971C72.2321 43.1057 71.9497 42.8636 71.9497 42.3794C71.9497 42.1574 72.0203 41.9153 72.1615 41.653L79.7275 28.5789C79.9495 28.1754 80.2824 27.8324 80.7263 27.55C81.1903 27.2675 81.6241 27.1263 82.0276 27.1263ZM124.471 32.5133C124.027 32.7957 123.613 32.937 123.23 32.937C122.867 32.937 122.484 33.0076 122.08 33.1488C121.555 33.3304 121.293 33.5725 121.293 33.8752C121.293 34.2182 121.656 34.3897 122.383 34.3897C122.948 34.3897 123.23 34.6318 123.23 35.116C123.23 35.3379 123.149 35.58 122.988 35.8423L119.629 41.653C119.407 42.0566 119.064 42.3996 118.6 42.682C118.156 42.9645 117.742 43.1057 117.359 43.1057H97.0214C96.4564 43.1057 96.174 42.8636 96.174 42.3794C96.174 42.1574 96.2446 41.9153 96.3858 41.653L98.928 37.295C99.1499 36.8915 99.4828 36.5485 99.9267 36.266C100.371 35.9836 100.794 35.8423 101.198 35.8423H108.461C109.026 35.8423 109.309 36.0844 109.309 36.5687C109.309 36.7906 109.238 37.0327 109.097 37.295L107.402 40.2004C107.261 40.4626 107.19 40.7048 107.19 40.9267C107.19 41.4109 107.462 41.653 108.007 41.653C108.411 41.653 108.834 41.5118 109.278 41.2293C109.742 40.9469 110.085 40.6039 110.307 40.2004L112.819 35.8423C112.981 35.58 113.061 35.3379 113.061 35.116C113.061 34.6318 112.779 34.3897 112.214 34.3897C111.488 34.3897 111.124 34.2182 111.124 33.8752C111.124 33.5725 111.387 33.3304 111.911 33.1488C112.315 33.0076 112.698 32.937 113.061 32.937C113.445 32.937 113.858 32.7957 114.302 32.5133C114.766 32.2308 115.109 31.8878 115.331 31.4843L116.179 30.0316C116.32 29.7693 116.39 29.5272 116.39 29.3053C116.39 28.8211 116.118 28.5789 115.573 28.5789C115.17 28.5789 114.746 28.7202 114.302 29.0026C113.858 29.2851 113.515 29.6281 113.273 30.0316C113.051 30.4351 112.708 30.7781 112.244 31.0606C111.8 31.3431 111.377 31.4843 110.973 31.4843H103.71C103.165 31.4843 102.893 31.2422 102.893 30.758C102.893 30.536 102.963 30.2939 103.104 30.0316L103.952 28.5789C104.174 28.1754 104.507 27.8324 104.951 27.55C105.415 27.2675 105.848 27.1263 106.252 27.1263H126.589C127.134 27.1263 127.407 27.3684 127.407 27.8526C127.407 28.0745 127.336 28.3167 127.195 28.5789L125.5 31.4843C125.278 31.8878 124.935 32.2308 124.471 32.5133ZM149.429 16.8062L153.454 23.6459C153.576 23.8477 153.636 24.12 153.636 24.463C153.636 24.9674 153.515 25.4315 153.273 25.8552L144.133 41.653C143.911 42.0566 143.568 42.3996 143.104 42.682C142.66 42.9645 142.247 43.1057 141.863 43.1057H121.526C120.961 43.1057 120.678 42.8636 120.678 42.3794C120.678 42.1574 120.749 41.9153 120.89 41.653L128.456 28.5789C128.678 28.1754 129.011 27.8324 129.455 27.55C129.919 27.2675 130.353 27.1263 130.756 27.1263H140.925C141.308 27.1263 141.722 26.985 142.166 26.7026C142.63 26.4201 142.973 26.0771 143.195 25.6736L148.037 17.3207C148.34 16.7961 148.653 16.5338 148.975 16.5338C149.157 16.5338 149.308 16.6246 149.429 16.8062ZM134.812 40.2004L140.683 30.0316C140.824 29.7693 140.895 29.5272 140.895 29.3053C140.895 28.8211 140.622 28.5789 140.078 28.5789C139.674 28.5789 139.25 28.7202 138.807 29.0026C138.363 29.2851 138.02 29.6281 137.778 30.0316L131.906 40.2004C131.765 40.4626 131.695 40.7048 131.695 40.9267C131.695 41.4109 131.967 41.653 132.512 41.653C132.915 41.653 133.339 41.5118 133.783 41.2293C134.247 40.9469 134.59 40.6039 134.812 40.2004Z" fill="#FF00C8"/>
<path d="M30.3718 31.4843L28.6442 30.4766L28.627 30.506L28.6108 30.5361L30.3718 31.4843ZM31.2192 30.0316L32.9467 31.0394L32.9639 31.0099L32.9801 30.9798L31.2192 30.0316ZM28.3138 30.0316L26.5988 29.0026L26.5884 29.0199L26.5784 29.0374L28.3138 30.0316ZM26.6493 32.937L28.3526 33.9852L28.369 33.9584L28.3846 33.9312L26.6493 32.937ZM38.0286 35.8423L36.3253 34.7941L36.3109 34.8175L36.2971 34.8413L38.0286 35.8423ZM34.6693 41.653L32.9378 40.652L32.9271 40.6705L32.9168 40.6892L34.6693 41.653ZM33.6403 42.682L32.6004 40.9736L32.5834 40.984L32.5665 40.9947L33.6403 42.682ZM11.4264 41.653L9.69887 40.6453L9.68167 40.6748L9.66549 40.7048L11.4264 41.653ZM13.1212 38.7477L14.8488 39.7554L14.8615 39.7336L14.8737 39.7115L13.1212 38.7477ZM14.1199 37.7187L13.08 36.0103L13.063 36.0207L13.0462 36.0314L14.1199 37.7187ZM23.29 38.7477L25.0175 39.7554L25.0347 39.7259L25.0509 39.6959L23.29 38.7477ZM22.4426 40.2004L20.715 39.1926L20.6978 39.2221L20.6816 39.2522L22.4426 40.2004ZM24.3189 41.2293L23.279 39.5209L23.262 39.5313L23.2452 39.542L24.3189 41.2293ZM25.3479 40.2004L23.6204 39.1926L23.6076 39.2144L23.5955 39.2365L25.3479 40.2004ZM27.0427 37.295L28.7703 38.3027L28.7875 38.2733L28.8037 38.2432L27.0427 37.295ZM15.6331 34.3897L13.9017 33.3886L13.8865 33.4148L13.8722 33.4415L15.6331 34.3897ZM18.9925 28.5789L20.7239 29.5799L20.7346 29.5615L20.7449 29.5428L18.9925 28.5789ZM19.9912 27.55L18.9513 25.8416L18.9342 25.8519L18.9174 25.8626L19.9912 27.55ZM42.2353 28.5789L43.9628 29.5867L43.98 29.5572L43.9962 29.5271L42.2353 28.5789ZM40.5405 31.4843L38.8129 30.4766L38.8002 30.4984L38.7881 30.5205L40.5405 31.4843ZM39.5115 32.5133L38.4716 30.8049L38.4546 30.8152L38.4378 30.826L39.5115 32.5133ZM38.2707 30.937H31.0073V34.937H38.2707V30.937ZM31.0073 30.937C31.0074 30.937 31.0231 30.9369 31.0518 30.9405C31.0805 30.944 31.1267 30.9516 31.186 30.9685C31.3065 31.003 31.4887 31.0786 31.6733 31.2369C32.1007 31.6032 32.1599 32.057 32.1599 32.2106H28.1599C28.1599 32.8485 28.3604 33.6655 29.0702 34.2739C29.721 34.8317 30.4855 34.937 31.0073 34.937V30.937ZM32.1599 32.2106C32.1599 32.4135 32.0969 32.499 32.1327 32.4325L28.6108 30.5361C28.3642 30.9942 28.1599 31.5639 28.1599 32.2106H32.1599ZM32.0993 32.492L32.9467 31.0394L29.4916 29.0239L28.6442 30.4766L32.0993 32.492ZM32.9801 30.9798C33.2267 30.5218 33.431 29.952 33.431 29.3053H29.431C29.431 29.1024 29.494 29.0169 29.4582 29.0834L32.9801 30.9798ZM33.431 29.3053C33.431 28.6899 33.2471 27.8805 32.5554 27.2657C31.9087 26.6908 31.1403 26.5789 30.6139 26.5789V30.5789C30.6084 30.5789 30.5285 30.5791 30.4032 30.5419C30.2712 30.5028 30.0834 30.4202 29.898 30.2553C29.4787 29.8827 29.431 29.4365 29.431 29.3053H33.431ZM30.6139 26.5789C29.7304 26.5789 28.938 26.8896 28.269 27.3153L30.4165 30.69C30.6354 30.5507 30.6903 30.5789 30.6139 30.5789V26.5789ZM28.269 27.3153C27.5945 27.7446 27.0187 28.3028 26.5988 29.0026L30.0288 31.0606C30.0931 30.9534 30.2034 30.8256 30.4165 30.69L28.269 27.3153ZM26.5784 29.0374L24.9139 31.9427L28.3846 33.9312L30.0492 31.0258L26.5784 29.0374ZM24.946 31.8888C24.6627 32.3491 24.4072 32.9544 24.4072 33.6633H28.4072C28.4072 33.9284 28.3131 34.0494 28.3526 33.9852L24.946 31.8888ZM24.4072 33.6633C24.4072 34.3011 24.6076 35.1182 25.3174 35.7266C25.9682 36.2844 26.7328 36.3897 27.2546 36.3897V32.3897C27.2546 32.3897 27.2703 32.3896 27.299 32.3931C27.3277 32.3966 27.3739 32.4043 27.4333 32.4212C27.5538 32.4556 27.7359 32.5313 27.9206 32.6896C28.3479 33.0559 28.4072 33.5097 28.4072 33.6633H24.4072ZM27.2546 36.3897H37.4233V32.3897H27.2546V36.3897ZM37.4233 36.3897C37.4232 36.3897 37.4075 36.3897 37.3788 36.3862C37.3501 36.3827 37.3039 36.375 37.2446 36.3581C37.1241 36.3237 36.9419 36.248 36.7573 36.0897C36.3299 35.7234 36.2707 35.2696 36.2707 35.116H40.2707C40.2707 34.4782 40.0702 33.6611 39.3604 33.0527C38.7096 32.4949 37.9451 32.3897 37.4233 32.3897V36.3897ZM36.2707 35.116C36.2707 34.8509 36.3648 34.7299 36.3253 34.7941L39.7319 36.8905C40.0152 36.4302 40.2707 35.825 40.2707 35.116H36.2707ZM36.2971 34.8413L32.9378 40.652L36.4007 42.654L39.76 36.8433L36.2971 34.8413ZM32.9168 40.6892C32.8913 40.7356 32.8199 40.84 32.6004 40.9736L34.6802 44.3904C35.3888 43.9591 36.0033 43.3775 36.4217 42.6169L32.9168 40.6892ZM32.5665 40.9947C32.4523 41.0674 32.3808 41.0969 32.3509 41.1071C32.3234 41.1165 32.3428 41.1057 32.3995 41.1057V45.1057C33.2801 45.1057 34.0647 44.7826 34.714 44.3693L32.5665 40.9947ZM32.3995 41.1057H12.062V45.1057H32.3995V41.1057ZM12.062 41.1057C12.062 41.1057 12.0777 41.1057 12.1065 41.1092C12.1351 41.1127 12.1814 41.1203 12.2407 41.1373C12.3612 41.1717 12.5433 41.2473 12.728 41.4056C13.1554 41.7719 13.2146 42.2258 13.2146 42.3794H9.21458C9.21458 43.0172 9.41503 43.8342 10.1248 44.4426C10.7757 45.0005 11.5402 45.1057 12.062 45.1057V41.1057ZM13.2146 42.3794C13.2146 42.5823 13.1516 42.6678 13.1874 42.6012L9.66549 40.7048C9.41885 41.1629 9.21458 41.7326 9.21458 42.3794H13.2146ZM13.154 42.6608L14.8488 39.7554L11.3937 37.7399L9.69887 40.6453L13.154 42.6608ZM14.8737 39.7115C14.9119 39.642 14.9924 39.5341 15.1937 39.406L13.0462 36.0314C12.3598 36.4682 11.7744 37.0463 11.3688 37.7838L14.8737 39.7115ZM15.1598 39.4271C15.4156 39.2714 15.4907 39.295 15.4213 39.295V35.295C14.5449 35.295 13.7524 35.6011 13.08 36.0103L15.1598 39.4271ZM15.4213 39.295H22.6847V35.295H15.4213V39.295ZM22.6847 39.295C22.6792 39.295 22.5993 39.2951 22.474 39.258C22.342 39.2189 22.1542 39.1363 21.9688 38.9714C21.5495 38.5987 21.5018 38.1525 21.5018 38.0213H25.5018C25.5018 37.4059 25.3179 36.5966 24.6263 35.9818C23.9795 35.4069 23.2111 35.295 22.6847 35.295V39.295ZM21.5018 38.0213C21.5018 37.8185 21.5648 37.733 21.529 37.7995L25.0509 39.6959C25.2975 39.2378 25.5018 38.6681 25.5018 38.0213H21.5018ZM21.5624 37.7399L20.715 39.1926L24.1701 41.2081L25.0175 39.7554L21.5624 37.7399ZM20.6816 39.2522C20.435 39.7102 20.2307 40.2799 20.2307 40.9267H24.2307C24.2307 41.1296 24.1677 41.2151 24.2035 41.1486L20.6816 39.2522ZM20.2307 40.9267C20.2307 41.5421 20.4146 42.3515 21.1063 42.9663C21.753 43.5412 22.5214 43.653 23.0478 43.653V39.653C23.0534 39.653 23.1332 39.6529 23.2585 39.69C23.3905 39.7292 23.5783 39.8118 23.7637 39.9766C24.183 40.3493 24.2307 40.7955 24.2307 40.9267H20.2307ZM23.0478 43.653C23.9313 43.653 24.7238 43.3423 25.3927 42.9167L23.2452 39.542C23.0264 39.6813 22.9714 39.653 23.0478 39.653V43.653ZM25.3588 42.9377C26.0674 42.5064 26.682 41.9248 27.1003 41.1642L23.5955 39.2365C23.57 39.2829 23.4985 39.3873 23.279 39.5209L25.3588 42.9377ZM27.0755 41.2081L28.7703 38.3027L25.3152 36.2873L23.6204 39.1926L27.0755 41.2081ZM28.8037 38.2432C29.0503 37.7852 29.2546 37.2154 29.2546 36.5687H25.2546C25.2546 36.3658 25.3176 36.2803 25.2818 36.3468L28.8037 38.2432ZM29.2546 36.5687C29.2546 35.9308 29.0541 35.1138 28.3443 34.5054C27.6935 33.9476 26.9289 33.8423 26.4072 33.8423V37.8423C26.4071 37.8423 26.3914 37.8424 26.3627 37.8388C26.334 37.8353 26.2878 37.8277 26.2285 37.8108C26.1079 37.7763 25.9258 37.7007 25.7411 37.5424C25.3138 37.1761 25.2546 36.7223 25.2546 36.5687H29.2546ZM26.4072 33.8423H16.2384V37.8423H26.4072V33.8423ZM16.2384 33.8423C16.2439 33.8423 16.3238 33.8422 16.4491 33.8793C16.5811 33.9184 16.7689 34.0011 16.9543 34.1659C17.3736 34.5386 17.4213 34.9848 17.4213 35.116H13.4213C13.4213 35.7314 13.6052 36.5408 14.2968 37.1556C14.9436 37.7305 15.712 37.8423 16.2384 37.8423V33.8423ZM17.4213 35.116C17.4213 35.3189 17.3583 35.4044 17.3941 35.3378L13.8722 33.4415C13.6256 33.8995 13.4213 34.4692 13.4213 35.116H17.4213ZM17.3646 35.3907L20.7239 29.5799L17.261 27.5779L13.9017 33.3886L17.3646 35.3907ZM20.7449 29.5428C20.7831 29.4733 20.8636 29.3654 21.0649 29.2373L18.9174 25.8626C18.231 26.2995 17.6457 26.8776 17.24 27.6151L20.7449 29.5428ZM21.0311 29.2584C21.2868 29.1027 21.3619 29.1263 21.2925 29.1263V25.1263C20.4161 25.1263 19.6236 25.4323 18.9513 25.8416L21.0311 29.2584ZM21.2925 29.1263H41.63V25.1263H21.2925V29.1263ZM41.63 29.1263C41.6245 29.1263 41.5446 29.1264 41.4193 29.0893C41.2873 29.0501 41.0996 28.9675 40.9141 28.8027C40.4949 28.43 40.4471 27.9838 40.4471 27.8526H44.4471C44.4471 27.2372 44.2632 26.4278 43.5716 25.813C42.9248 25.2381 42.1564 25.1263 41.63 25.1263V29.1263ZM40.4471 27.8526C40.4471 27.6497 40.5102 27.5642 40.4743 27.6307L43.9962 29.5271C44.2429 29.0691 44.4471 28.4994 44.4471 27.8526H40.4471ZM40.5077 27.5712L38.8129 30.4766L42.2681 32.492L43.9628 29.5867L40.5077 27.5712ZM38.7881 30.5205C38.7625 30.5669 38.6911 30.6713 38.4716 30.8049L40.5514 34.2217C41.26 33.7904 41.8746 33.2088 42.2929 32.4481L38.7881 30.5205ZM38.4378 30.826C38.3235 30.8987 38.252 30.9281 38.2221 30.9383C38.1947 30.9477 38.2141 30.937 38.2707 30.937V34.937C39.1513 34.937 39.9359 34.6138 40.5853 34.2006L38.4378 30.826ZM54.2364 27.1263L52.5214 26.0973L52.5124 26.1124L52.5036 26.1276L54.2364 27.1263ZM39.3767 52.9113L41.1091 53.9107L41.1096 53.9099L39.3767 52.9113ZM37.9543 53.3955L36.2293 54.4075L36.2343 54.416L36.2393 54.4245L37.9543 53.3955ZM33.9595 46.5861L35.6845 45.5741L35.6795 45.5655L35.6745 45.5571L33.9595 46.5861ZM34.2319 44.1952L35.9468 45.2242L35.9556 45.2096L35.9641 45.1949L34.2319 44.1952ZM48.2744 19.8629L50.0066 20.8626L50.0169 20.8448L50.0268 20.8267L48.2744 19.8629ZM49.2731 18.8339L48.2332 17.1255L48.2162 17.1359L48.1994 17.1466L49.2731 18.8339ZM58.4431 19.8629L60.1707 20.8706L60.1879 20.8411L60.2041 20.8111L58.4431 19.8629ZM56.7483 22.7682L55.0208 21.7605L55.0036 21.79L54.9874 21.82L56.7483 22.7682ZM57.6865 25.4617L58.319 27.3591L58.3299 27.3555L58.3408 27.3517L57.6865 25.4617ZM52.5036 26.1276L37.6439 51.9127L41.1096 53.9099L55.9693 28.1249L52.5036 26.1276ZM37.6444 51.9118C37.5643 52.0506 37.553 52.0252 37.6465 51.9492C37.7631 51.8545 38.0286 51.6981 38.4083 51.6981V55.6981C39.8854 55.6981 40.7257 54.5753 41.1091 53.9107L37.6444 51.9118ZM38.4083 51.6981C38.713 51.6981 39.0157 51.7902 39.268 51.9584C39.5 52.1131 39.6206 52.2853 39.6693 52.3665L36.2393 54.4245C36.5998 55.0252 37.3156 55.6981 38.4083 55.6981V51.6981ZM39.6794 52.3835L35.6845 45.5741L32.2344 47.5981L36.2293 54.4075L39.6794 52.3835ZM35.6745 45.5571C35.7862 45.7433 35.7779 45.8715 35.7779 45.8295H31.7779C31.7779 46.3927 31.8907 47.0254 32.2445 47.6151L35.6745 45.5571ZM35.7779 45.8295C35.7779 45.6089 35.8296 45.4195 35.9468 45.2242L32.5169 43.1662C32.0288 43.9797 31.7779 44.8799 31.7779 45.8295H35.7779ZM35.9641 45.1949L50.0066 20.8626L46.5422 18.8632L32.4996 43.1955L35.9641 45.1949ZM50.0268 20.8267C50.0651 20.7572 50.1455 20.6493 50.3469 20.5212L48.1994 17.1466C47.5129 17.5834 46.9276 18.1615 46.522 18.899L50.0268 20.8267ZM50.313 20.5423C50.5688 20.3866 50.6438 20.4102 50.5745 20.4102V16.4102C49.6981 16.4102 48.9056 16.7163 48.2332 17.1255L50.313 20.5423ZM50.5745 20.4102H57.8379V16.4102H50.5745V20.4102ZM57.8379 20.4102C57.8323 20.4102 57.7525 20.4103 57.6272 20.3732C57.4952 20.3341 57.3074 20.2514 57.122 20.0866C56.7027 19.7139 56.655 19.2677 56.655 19.1365H60.655C60.655 18.5211 60.4711 17.7118 59.7794 17.097C59.1327 16.5221 58.3643 16.4102 57.8379 16.4102V20.4102ZM56.655 19.1365C56.655 18.9337 56.718 18.8482 56.6822 18.9147L60.2041 20.8111C60.4507 20.353 60.655 19.7833 60.655 19.1365H56.655ZM56.7156 18.8551L55.0208 21.7605L58.4759 23.776L60.1707 20.8706L56.7156 18.8551ZM54.9874 21.82C54.7408 22.2781 54.5365 22.8478 54.5365 23.4946H58.5365C58.5365 23.6975 58.4735 23.783 58.5093 23.7164L54.9874 21.82ZM54.5365 23.4946C54.5365 24.1324 54.7369 24.9494 55.4468 25.5578C56.0976 26.1157 56.8621 26.2209 57.3839 26.2209V22.2209C57.3839 22.2209 57.3996 22.2209 57.4284 22.2244C57.4571 22.2279 57.5033 22.2355 57.5626 22.2525C57.6831 22.2869 57.8653 22.3625 58.0499 22.5208C58.4773 22.8871 58.5365 23.341 58.5365 23.4946H54.5365ZM57.3839 26.2209C57.6531 26.2209 57.5688 26.2628 57.347 26.158C57.2099 26.0933 56.9727 25.9488 56.7714 25.6637C56.5572 25.3602 56.4734 25.0239 56.4734 24.7354H60.4734C60.4734 24.2754 60.3442 23.789 60.0392 23.3569C59.7472 22.9432 59.3737 22.6915 59.055 22.541C58.4701 22.2648 57.841 22.2209 57.3839 22.2209V26.2209ZM56.4734 24.7354C56.4734 24.511 56.5245 24.2863 56.6222 24.0834C56.7165 23.8875 56.8334 23.7544 56.9201 23.6744C57.0726 23.5336 57.1635 23.5264 57.0323 23.5718L58.3408 27.3517C58.9439 27.1429 60.4734 26.4642 60.4734 24.7354H56.4734ZM57.0541 23.5644C56.7762 23.657 56.6108 23.6736 56.5365 23.6736V27.6736C57.1482 27.6736 57.7495 27.5489 58.319 27.3591L57.0541 23.5644ZM56.5365 23.6736C55.653 23.6736 54.8606 23.9843 54.1917 24.41L56.3392 27.7846C56.558 27.6454 56.6129 27.6736 56.5365 27.6736V23.6736ZM54.1917 24.41C53.5171 24.8392 52.9413 25.3975 52.5214 26.0973L55.9514 28.1553C56.0158 28.048 56.126 27.9203 56.3392 27.7846L54.1917 24.41ZM77.9966 28.5789L79.7276 29.5807L79.743 29.5541L79.7575 29.5271L77.9966 28.5789ZM70.4306 41.653L68.6995 40.6513L68.6886 40.6701L68.6781 40.6892L70.4306 41.653ZM69.4016 42.682L68.3617 40.9736L68.3447 40.984L68.3278 40.9947L69.4016 42.682ZM47.1877 41.653L45.4563 40.652L45.4411 40.6782L45.4268 40.7048L47.1877 41.653ZM50.547 35.8423L48.8321 34.8133L48.8237 34.8273L48.8156 34.8413L50.547 35.8423ZM65.3159 32.937L67.0309 33.966L67.0413 33.9487L67.0513 33.9312L65.3159 32.937ZM66.9805 30.0316L68.7158 31.0258L68.7289 31.003L68.7414 30.9798L66.9805 30.0316ZM64.0751 30.0316L62.3601 29.0026L62.3538 29.0132L62.3475 29.0239L64.0751 30.0316ZM63.2277 31.4843L61.5001 30.4766L61.4874 30.4983L61.4753 30.5205L63.2277 31.4843ZM62.1987 32.5133L61.1588 30.8049L61.1418 30.8152L61.125 30.826L62.1987 32.5133ZM53.059 31.4843L51.3314 30.4766L51.3142 30.506L51.298 30.5361L53.059 31.4843ZM54.7538 28.5789L56.4813 29.5867L56.494 29.5649L56.5062 29.5428L54.7538 28.5789ZM55.7525 27.55L54.7126 25.8416L54.6955 25.8519L54.6787 25.8626L55.7525 27.55ZM61.1092 40.2004L59.3817 39.1926L59.3689 39.2144L59.3568 39.2365L61.1092 40.2004ZM62.804 37.295L64.5316 38.3027L64.5488 38.2733L64.5649 38.2432L62.804 37.295ZM60.8974 36.266L61.9711 37.9533L61.9711 37.9533L60.8974 36.266ZM59.8986 37.295L61.6262 38.3027L61.6389 38.281L61.6511 38.2588L59.8986 37.295ZM58.2039 40.2004L56.4763 39.1926L56.4591 39.2221L56.4429 39.2522L58.2039 40.2004ZM60.0802 41.2293L59.0403 39.5209L59.0233 39.5313L59.0065 39.542L60.0802 41.2293ZM57.0538 29.1263H77.3913V25.1263H57.0538V29.1263ZM77.3913 29.1263C77.3858 29.1263 77.3059 29.1264 77.1806 29.0893C77.0486 29.0501 76.8609 28.9675 76.6754 28.8027C76.2562 28.43 76.2084 27.9838 76.2084 27.8526H80.2084C80.2084 27.2372 80.0245 26.4278 79.3329 25.813C78.6861 25.2381 77.9177 25.1263 77.3913 25.1263V29.1263ZM76.2084 27.8526C76.2084 27.6497 76.2715 27.5642 76.2356 27.6307L79.7575 29.5271C80.0042 29.0691 80.2084 28.4994 80.2084 27.8526H76.2084ZM76.2655 27.5772L68.6995 40.6513L72.1616 42.6548L79.7276 29.5807L76.2655 27.5772ZM68.6781 40.6892C68.6526 40.7356 68.5812 40.84 68.3617 40.9736L70.4415 44.3904C71.1501 43.9591 71.7646 43.3775 72.183 42.6169L68.6781 40.6892ZM68.3278 40.9947C68.2136 41.0674 68.1421 41.0969 68.1122 41.1071C68.0847 41.1165 68.1041 41.1057 68.1608 41.1057V45.1057C69.0414 45.1057 69.826 44.7826 70.4753 44.3693L68.3278 40.9947ZM68.1608 41.1057H47.8233V45.1057H68.1608V41.1057ZM47.8233 41.1057C47.8233 41.1057 47.839 41.1057 47.8677 41.1092C47.8964 41.1127 47.9427 41.1203 48.002 41.1373C48.1225 41.1717 48.3046 41.2473 48.4893 41.4056C48.9167 41.7719 48.9759 42.2258 48.9759 42.3794H44.9759C44.9759 43.0172 45.1763 43.8342 45.8861 44.4426C46.5369 45.0005 47.3015 45.1057 47.8233 45.1057V41.1057ZM48.9759 42.3794C48.9759 42.5823 48.9128 42.6678 48.9487 42.6012L45.4268 40.7048C45.1801 41.1629 44.9759 41.7326 44.9759 42.3794H48.9759ZM48.9192 42.654L52.2785 36.8433L48.8156 34.8413L45.4563 40.652L48.9192 42.654ZM52.262 36.8713C52.3264 36.7641 52.4366 36.6363 52.6498 36.5007L50.5023 33.126C49.8277 33.5553 49.2519 34.1135 48.8321 34.8133L52.262 36.8713ZM52.6498 36.5007C52.8686 36.3614 52.9235 36.3897 52.8471 36.3897V32.3897C51.9637 32.3897 51.1712 32.7003 50.5023 33.126L52.6498 36.5007ZM52.8471 36.3897H63.0159V32.3897H52.8471V36.3897ZM63.0159 36.3897C63.8993 36.3897 64.6918 36.079 65.3607 35.6533L63.2132 32.2786C62.9944 32.4179 62.9394 32.3897 63.0159 32.3897V36.3897ZM65.3607 35.6533C66.0353 35.224 66.611 34.6658 67.0309 33.966L63.6009 31.908C63.5366 32.0152 63.4264 32.143 63.2132 32.2786L65.3607 35.6533ZM67.0513 33.9312L68.7158 31.0258L65.2451 29.0374L63.5806 31.9427L67.0513 33.9312ZM68.7414 30.9798C68.988 30.5218 69.1923 29.952 69.1923 29.3053H65.1923C65.1923 29.1024 65.2553 29.0169 65.2195 29.0834L68.7414 30.9798ZM69.1923 29.3053C69.1923 28.6899 69.0084 27.8805 68.3167 27.2657C67.67 26.6908 66.9016 26.5789 66.3752 26.5789V30.5789C66.3696 30.5789 66.2898 30.5791 66.1645 30.5419C66.0325 30.5028 65.8447 30.4202 65.6593 30.2553C65.24 29.8827 65.1923 29.4365 65.1923 29.3053H69.1923ZM66.3752 26.5789C65.4917 26.5789 64.6992 26.8896 64.0303 27.3153L66.1778 30.69C66.3967 30.5507 66.4516 30.5789 66.3752 30.5789V26.5789ZM64.0303 27.3153C63.3558 27.7446 62.78 28.3028 62.3601 29.0026L65.7901 31.0606C65.8544 30.9534 65.9646 30.8256 66.1778 30.69L64.0303 27.3153ZM62.3475 29.0239L61.5001 30.4766L64.9553 32.492L65.8027 31.0394L62.3475 29.0239ZM61.4753 30.5205C61.4497 30.5669 61.3783 30.6713 61.1588 30.8049L63.2386 34.2217C63.9472 33.7904 64.5618 33.2088 64.9801 32.4481L61.4753 30.5205ZM61.125 30.826C61.0107 30.8987 60.9392 30.9281 60.9093 30.9383C60.8819 30.9477 60.9013 30.937 60.9579 30.937V34.937C61.8385 34.937 62.6231 34.6138 63.2725 34.2006L61.125 30.826ZM60.9579 30.937H53.6945V34.937H60.9579V30.937ZM53.6945 30.937C53.6946 30.937 53.7103 30.9369 53.739 30.9405C53.7677 30.944 53.8139 30.9516 53.8732 30.9685C53.9937 31.003 54.1759 31.0786 54.3605 31.2369C54.7879 31.6032 54.8471 32.057 54.8471 32.2106H50.8471C50.8471 32.8485 51.0476 33.6655 51.7574 34.2739C52.4082 34.8317 53.1727 34.937 53.6945 34.937V30.937ZM54.8471 32.2106C54.8471 32.4135 54.7841 32.499 54.8199 32.4325L51.298 30.5361C51.0514 30.9941 50.8471 31.5639 50.8471 32.2106H54.8471ZM54.7865 32.492L56.4813 29.5867L53.0262 27.5712L51.3314 30.4766L54.7865 32.492ZM56.5062 29.5428C56.5444 29.4733 56.6249 29.3654 56.8262 29.2373L54.6787 25.8626C53.9923 26.2995 53.407 26.8776 53.0013 27.6151L56.5062 29.5428ZM56.7924 29.2584C57.0481 29.1027 57.1232 29.1263 57.0538 29.1263V25.1263C56.1774 25.1263 55.3849 25.4323 54.7126 25.8416L56.7924 29.2584ZM62.8368 41.2081L64.5316 38.3027L61.0764 36.2873L59.3817 39.1926L62.8368 41.2081ZM64.5649 38.2432C64.8116 37.7852 65.0159 37.2154 65.0159 36.5687H61.0159C61.0159 36.3658 61.0789 36.2803 61.0431 36.3468L64.5649 38.2432ZM65.0159 36.5687C65.0159 35.9308 64.8154 35.1138 64.1056 34.5054C63.4548 33.9476 62.6902 33.8423 62.1685 33.8423V37.8423C62.1684 37.8423 62.1527 37.8424 62.124 37.8388C62.0953 37.8353 62.0491 37.8277 61.9898 37.8108C61.8692 37.7763 61.6871 37.7007 61.5024 37.5424C61.0751 37.1761 61.0159 36.7223 61.0159 36.5687H65.0159ZM62.1685 33.8423C61.285 33.8423 60.4925 34.153 59.8236 34.5787L61.9711 37.9533C62.1899 37.8141 62.2449 37.8423 62.1685 37.8423V33.8423ZM59.8236 34.5787C59.1372 35.0155 58.5519 35.5936 58.1462 36.3312L61.6511 38.2588C61.6893 38.1893 61.7698 38.0815 61.9711 37.9533L59.8236 34.5787ZM58.1711 36.2873L56.4763 39.1926L59.9314 41.2081L61.6262 38.3027L58.1711 36.2873ZM56.4429 39.2522C56.1963 39.7102 55.992 40.2799 55.992 40.9267H59.992C59.992 41.1296 59.929 41.2151 59.9648 41.1486L56.4429 39.2522ZM55.992 40.9267C55.992 41.5421 56.1759 42.3515 56.8676 42.9663C57.5143 43.5412 58.2827 43.653 58.8091 43.653V39.653C58.8147 39.653 58.8945 39.6529 59.0198 39.69C59.1518 39.7292 59.3396 39.8118 59.525 39.9766C59.9443 40.3493 59.992 40.7955 59.992 40.9267H55.992ZM58.8091 43.653C59.6926 43.653 60.4851 43.3423 61.154 42.9167L59.0065 39.542C58.7877 39.6813 58.7327 39.653 58.8091 39.653V43.653ZM61.1201 42.9377C61.8287 42.5064 62.4433 41.9248 62.8616 41.1642L59.3568 39.2365C59.3313 39.2829 59.2598 39.3873 59.0403 39.5209L61.1201 42.9377ZM102.97 28.5789L104.698 29.5867L104.715 29.5572L104.731 29.5271L102.97 28.5789ZM101.276 31.4843L99.548 30.4766L99.5353 30.4984L99.5232 30.5205L101.276 31.4843ZM100.247 32.5133L99.2067 30.8049L99.1897 30.8152L99.1729 30.826L100.247 32.5133ZM91.1068 31.4843L89.3793 30.4766L89.3621 30.506L89.3459 30.5361L91.1068 31.4843ZM91.9542 30.0316L93.6818 31.0394L93.699 31.0099L93.7152 30.9798L91.9542 30.0316ZM89.0489 30.0316L87.3339 29.0026L87.3255 29.0166L87.3174 29.0306L89.0489 30.0316ZM82.3303 41.653L80.5988 40.652L80.5881 40.6705L80.5778 40.6892L82.3303 41.653ZM81.3013 42.682L80.2614 40.9736L80.2444 40.984L80.2275 40.9947L81.3013 42.682ZM72.1615 41.653L70.4305 40.6513L70.4151 40.6778L70.4006 40.7048L72.1615 41.653ZM79.7275 28.5789L81.4586 29.5807L81.4695 29.5619L81.48 29.5428L79.7275 28.5789ZM80.7263 27.55L79.6864 25.8416L79.6693 25.8519L79.6525 25.8626L80.7263 27.55ZM82.0276 29.1263H102.365V25.1263H82.0276V29.1263ZM102.365 29.1263C102.36 29.1263 102.28 29.1264 102.154 29.0893C102.022 29.0501 101.835 28.9675 101.649 28.8027C101.23 28.43 101.182 27.9838 101.182 27.8526H105.182C105.182 27.2372 104.998 26.4278 104.307 25.813C103.66 25.2381 102.892 25.1263 102.365 25.1263V29.1263ZM101.182 27.8526C101.182 27.6497 101.245 27.5642 101.209 27.6307L104.731 29.5271C104.978 29.0691 105.182 28.4994 105.182 27.8526H101.182ZM101.243 27.5712L99.548 30.4766L103.003 32.492L104.698 29.5867L101.243 27.5712ZM99.5232 30.5205C99.4976 30.5669 99.4262 30.6713 99.2067 30.8049L101.287 34.2217C101.995 33.7904 102.61 33.2088 103.028 32.4481L99.5232 30.5205ZM99.1729 30.826C99.0586 30.8987 98.9871 30.9281 98.9572 30.9383C98.9298 30.9477 98.9492 30.937 99.0058 30.937V34.937C99.8864 34.937 100.671 34.6138 101.32 34.2006L99.1729 30.826ZM99.0058 30.937H91.7424V34.937H99.0058V30.937ZM91.7424 30.937C91.7424 30.937 91.7581 30.9369 91.7869 30.9405C91.8156 30.944 91.8618 30.9516 91.9211 30.9685C92.0416 31.003 92.2238 31.0786 92.4084 31.2369C92.8358 31.6032 92.895 32.057 92.895 32.2106H88.895C88.895 32.8485 89.0955 33.6655 89.8053 34.2739C90.4561 34.8317 91.2206 34.937 91.7424 34.937V30.937ZM92.895 32.2106C92.895 32.4135 92.832 32.499 92.8678 32.4325L89.3459 30.5361C89.0993 30.9942 88.895 31.5639 88.895 32.2106H92.895ZM92.8344 32.492L93.6818 31.0394L90.2267 29.0239L89.3793 30.4766L92.8344 32.492ZM93.7152 30.9798C93.9618 30.5218 94.1661 29.952 94.1661 29.3053H90.1661C90.1661 29.1024 90.2291 29.0169 90.1933 29.0834L93.7152 30.9798ZM94.1661 29.3053C94.1661 28.6899 93.9822 27.8805 93.2905 27.2657C92.6438 26.6908 91.8754 26.5789 91.349 26.5789V30.5789C91.3434 30.5789 91.2636 30.5791 91.1383 30.5419C91.0063 30.5028 90.8185 30.4202 90.6331 30.2553C90.2138 29.8827 90.1661 29.4365 90.1661 29.3053H94.1661ZM91.349 26.5789C90.4655 26.5789 89.673 26.8896 89.0041 27.3153L91.1516 30.69C91.3704 30.5507 91.4254 30.5789 91.349 30.5789V26.5789ZM89.0041 27.3153C88.3295 27.7446 87.7538 28.3028 87.3339 29.0026L90.7639 31.0606C90.8282 30.9534 90.9384 30.8256 91.1516 30.69L89.0041 27.3153ZM87.3174 29.0306L80.5988 40.652L84.0617 42.654L90.7804 31.0326L87.3174 29.0306ZM80.5778 40.6892C80.5523 40.7356 80.4809 40.84 80.2614 40.9736L82.3412 44.3904C83.0498 43.9591 83.6643 43.3775 84.0827 42.6169L80.5778 40.6892ZM80.2275 40.9947C80.1133 41.0674 80.0418 41.0969 80.0119 41.1071C79.9844 41.1165 80.0038 41.1057 80.0605 41.1057V45.1057C80.9411 45.1057 81.7257 44.7826 82.375 44.3693L80.2275 40.9947ZM80.0605 41.1057H72.7971V45.1057H80.0605V41.1057ZM72.7971 41.1057C72.7971 41.1057 72.8128 41.1057 72.8415 41.1092C72.8702 41.1127 72.9164 41.1203 72.9758 41.1373C73.0963 41.1717 73.2784 41.2473 73.4631 41.4056C73.8905 41.7719 73.9497 42.2258 73.9497 42.3794H69.9497C69.9497 43.0172 70.1501 43.8342 70.8599 44.4426C71.5107 45.0005 72.2753 45.1057 72.7971 45.1057V41.1057ZM73.9497 42.3794C73.9497 42.5823 73.8866 42.6678 73.9225 42.6012L70.4006 40.7048C70.1539 41.1629 69.9497 41.7326 69.9497 42.3794H73.9497ZM73.8926 42.6548L81.4586 29.5807L77.9965 27.5772L70.4305 40.6513L73.8926 42.6548ZM81.48 29.5428C81.5182 29.4733 81.5987 29.3654 81.8 29.2373L79.6525 25.8626C78.9661 26.2995 78.3808 26.8776 77.9751 27.6151L81.48 29.5428ZM81.7662 29.2584C82.0219 29.1027 82.097 29.1263 82.0276 29.1263V25.1263C81.1512 25.1263 80.3587 25.4323 79.6864 25.8416L81.7662 29.2584ZM124.471 32.5133L123.431 30.8049L123.414 30.8152L123.397 30.826L124.471 32.5133ZM122.08 33.1488L122.734 35.0388L122.741 35.0365L122.08 33.1488ZM122.988 35.8423L121.285 34.7941L121.27 34.8175L121.256 34.8413L122.988 35.8423ZM119.629 41.653L117.897 40.652L117.886 40.6705L117.876 40.6892L119.629 41.653ZM118.6 42.682L117.56 40.9736L117.543 40.984L117.526 40.9947L118.6 42.682ZM96.3858 41.653L94.6582 40.6453L94.641 40.6748L94.6249 40.7048L96.3858 41.653ZM98.928 37.295L100.656 38.3027L100.668 38.281L100.68 38.2588L98.928 37.295ZM99.9267 36.266L98.853 34.5787L98.853 34.5787L99.9267 36.266ZM109.097 37.295L110.824 38.3027L110.841 38.2733L110.858 38.2432L109.097 37.295ZM107.402 40.2004L105.674 39.1926L105.657 39.2221L105.641 39.2522L107.402 40.2004ZM109.278 41.2293L108.238 39.5209L108.221 39.5313L108.205 39.542L109.278 41.2293ZM110.307 40.2004L108.575 39.2016L108.565 39.219L108.555 39.2365L110.307 40.2004ZM112.819 35.8423L111.116 34.7941L111.101 34.8186L111.086 34.8436L112.819 35.8423ZM111.911 33.1488L112.566 35.0388L112.572 35.0365L111.911 33.1488ZM114.302 32.5133L113.262 30.8049L113.245 30.8152L113.228 30.826L114.302 32.5133ZM115.331 31.4843L113.604 30.4766L113.591 30.4984L113.579 30.5205L115.331 31.4843ZM116.179 30.0316L117.906 31.0394L117.923 31.0099L117.939 30.9798L116.179 30.0316ZM113.273 30.0316L111.558 29.0026L111.539 29.0349L111.521 29.0678L113.273 30.0316ZM112.244 31.0606L111.204 29.3522L111.187 29.3626L111.17 29.3733L112.244 31.0606ZM103.104 30.0316L101.377 29.0239L101.36 29.0534L101.343 29.0834L103.104 30.0316ZM103.952 28.5789L105.679 29.5867L105.692 29.5649L105.704 29.5428L103.952 28.5789ZM104.951 27.55L103.911 25.8416L103.894 25.8519L103.877 25.8626L104.951 27.55ZM127.195 28.5789L128.922 29.5867L128.939 29.5572L128.956 29.5271L127.195 28.5789ZM125.5 31.4843L123.772 30.4766L123.76 30.4984L123.747 30.5205L125.5 31.4843ZM123.397 30.826C123.283 30.8987 123.211 30.9281 123.181 30.9383C123.154 30.9477 123.173 30.937 123.23 30.937V34.937C124.111 34.937 124.895 34.6138 125.545 34.2006L123.397 30.826ZM123.23 30.937C122.606 30.937 121.998 31.0584 121.419 31.2611L122.741 35.0365C122.969 34.9568 123.128 34.937 123.23 34.937V30.937ZM121.426 31.2588C120.823 31.4676 119.293 32.1463 119.293 33.8752H123.293C123.293 34.0996 123.242 34.3243 123.144 34.5272C123.05 34.723 122.933 34.8562 122.846 34.9362C122.694 35.0769 122.603 35.0842 122.734 35.0388L121.426 31.2588ZM119.293 33.8752C119.293 34.3352 119.422 34.8215 119.727 35.2536C120.019 35.6674 120.393 35.919 120.712 36.0695C121.296 36.3457 121.926 36.3897 122.383 36.3897V32.3897C122.113 32.3897 122.198 32.3478 122.42 32.4525C122.557 32.5173 122.794 32.6617 122.995 32.9469C123.209 33.2503 123.293 33.5866 123.293 33.8752H119.293ZM122.383 36.3897C122.383 36.3897 122.367 36.3897 122.338 36.3862C122.31 36.3827 122.263 36.375 122.204 36.3581C122.083 36.3237 121.901 36.248 121.717 36.0897C121.289 35.7234 121.23 35.2696 121.23 35.116H125.23C125.23 34.4782 125.03 33.6611 124.32 33.0527C123.669 32.4949 122.904 32.3897 122.383 32.3897V36.3897ZM121.23 35.116C121.23 34.8509 121.324 34.7299 121.285 34.7941L124.691 36.8905C124.975 36.4302 125.23 35.825 125.23 35.116H121.23ZM121.256 34.8413L117.897 40.652L121.36 42.654L124.719 36.8433L121.256 34.8413ZM117.876 40.6892C117.851 40.7356 117.779 40.84 117.56 40.9736L119.64 44.3904C120.348 43.9591 120.963 43.3775 121.381 42.6169L117.876 40.6892ZM117.526 40.9947C117.412 41.0674 117.34 41.0969 117.31 41.1071C117.283 41.1165 117.302 41.1057 117.359 41.1057V45.1057C118.239 45.1057 119.024 44.7826 119.673 44.3693L117.526 40.9947ZM117.359 41.1057H97.0214V45.1057H117.359V41.1057ZM97.0214 41.1057C97.0214 41.1057 97.0371 41.1057 97.0658 41.1092C97.0945 41.1127 97.1407 41.1203 97.2001 41.1373C97.3206 41.1717 97.5027 41.2473 97.6874 41.4056C98.1147 41.7719 98.174 42.2258 98.174 42.3794H94.174C94.174 43.0172 94.3744 43.8342 95.0842 44.4426C95.735 45.0005 96.4996 45.1057 97.0214 45.1057V41.1057ZM98.174 42.3794C98.174 42.5823 98.1109 42.6678 98.1467 42.6012L94.6249 40.7048C94.3782 41.1629 94.174 41.7326 94.174 42.3794H98.174ZM98.1134 42.6608L100.656 38.3027L97.2004 36.2873L94.6582 40.6453L98.1134 42.6608ZM100.68 38.2588C100.719 38.1893 100.799 38.0815 101 37.9533L98.853 34.5787C98.1665 35.0155 97.5812 35.5936 97.1756 36.3312L100.68 38.2588ZM101 37.9533C101.219 37.8141 101.274 37.8423 101.198 37.8423V33.8423C100.314 33.8423 99.5219 34.153 98.853 34.5787L101 37.9533ZM101.198 37.8423H108.461V33.8423H101.198V37.8423ZM108.461 37.8423C108.461 37.8423 108.445 37.8424 108.417 37.8388C108.388 37.8353 108.342 37.8277 108.282 37.8108C108.162 37.7763 107.98 37.7007 107.795 37.5424C107.368 37.1761 107.309 36.7223 107.309 36.5687H111.309C111.309 35.9308 111.108 35.1138 110.398 34.5054C109.748 33.9476 108.983 33.8423 108.461 33.8423V37.8423ZM107.309 36.5687C107.309 36.3658 107.372 36.2803 107.336 36.3468L110.858 38.2432C111.104 37.7852 111.309 37.2154 111.309 36.5687H107.309ZM107.369 36.2873L105.674 39.1926L109.129 41.2081L110.824 38.3027L107.369 36.2873ZM105.641 39.2522C105.394 39.7102 105.19 40.2799 105.19 40.9267H109.19C109.19 41.1296 109.127 41.2151 109.163 41.1486L105.641 39.2522ZM105.19 40.9267C105.19 41.5421 105.374 42.3515 106.066 42.9663C106.712 43.5412 107.481 43.653 108.007 43.653V39.653C108.013 39.653 108.093 39.6529 108.218 39.69C108.35 39.7292 108.538 39.8118 108.723 39.9766C109.142 40.3493 109.19 40.7955 109.19 40.9267H105.19ZM108.007 43.653C108.891 43.653 109.683 43.3423 110.352 42.9167L108.205 39.542C107.986 39.6813 107.931 39.653 108.007 39.653V43.653ZM110.318 42.9377C111.027 42.5064 111.641 41.9248 112.06 41.1642L108.555 39.2365C108.529 39.2829 108.458 39.3873 108.238 39.5209L110.318 42.9377ZM112.04 41.1991L114.552 36.8411L111.086 34.8436L108.575 39.2016L112.04 41.1991ZM114.523 36.8905C114.806 36.4302 115.061 35.825 115.061 35.116H111.061C111.061 34.8509 111.155 34.7299 111.116 34.7941L114.523 36.8905ZM115.061 35.116C115.061 34.4782 114.861 33.6611 114.151 33.0527C113.5 32.4949 112.736 32.3897 112.214 32.3897V36.3897C112.214 36.3897 112.198 36.3897 112.169 36.3862C112.141 36.3827 112.095 36.375 112.035 36.3581C111.915 36.3237 111.733 36.248 111.548 36.0897C111.121 35.7234 111.061 35.2696 111.061 35.116H115.061ZM112.214 32.3897C111.945 32.3897 112.029 32.3478 112.251 32.4525C112.388 32.5173 112.625 32.6617 112.826 32.9469C113.041 33.2503 113.124 33.5866 113.124 33.8752H109.124C109.124 34.3352 109.254 34.8215 109.559 35.2536C109.851 35.6674 110.224 35.919 110.543 36.0695C111.128 36.3457 111.757 36.3897 112.214 36.3897V32.3897ZM113.124 33.8752C113.124 34.0996 113.073 34.3243 112.976 34.5272C112.881 34.723 112.764 34.8562 112.678 34.9362C112.525 35.0769 112.434 35.0842 112.566 35.0388L111.257 31.2588C110.654 31.4676 109.124 32.1463 109.124 33.8752H113.124ZM112.572 35.0365C112.8 34.9568 112.959 34.937 113.061 34.937V30.937C112.437 30.937 111.83 31.0584 111.251 31.2611L112.572 35.0365ZM113.061 34.937C113.942 34.937 114.727 34.6138 115.376 34.2006L113.228 30.826C113.114 30.8987 113.043 30.9281 113.013 30.9383C112.985 30.9477 113.005 30.937 113.061 30.937V34.937ZM115.342 34.2217C116.051 33.7904 116.665 33.2088 117.084 32.4481L113.579 30.5205C113.553 30.5669 113.482 30.6713 113.262 30.8049L115.342 34.2217ZM117.059 32.492L117.906 31.0394L114.451 29.0239L113.604 30.4766L117.059 32.492ZM117.939 30.9798C118.186 30.5218 118.39 29.952 118.39 29.3053H114.39C114.39 29.1024 114.453 29.0169 114.418 29.0834L117.939 30.9798ZM118.39 29.3053C118.39 28.6899 118.206 27.8805 117.515 27.2657C116.868 26.6908 116.1 26.5789 115.573 26.5789V30.5789C115.568 30.5789 115.488 30.5791 115.363 30.5419C115.231 30.5028 115.043 30.4202 114.857 30.2553C114.438 29.8827 114.39 29.4365 114.39 29.3053H118.39ZM115.573 26.5789C114.69 26.5789 113.897 26.8896 113.228 27.3153L115.376 30.69C115.595 30.5507 115.65 30.5789 115.573 30.5789V26.5789ZM113.228 27.3153C112.554 27.7446 111.978 28.3028 111.558 29.0026L114.988 31.0606C115.053 30.9534 115.163 30.8256 115.376 30.69L113.228 27.3153ZM111.521 29.0678C111.495 29.1142 111.424 29.2186 111.204 29.3522L113.284 32.769C113.993 32.3377 114.607 31.7561 115.026 30.9955L111.521 29.0678ZM111.17 29.3733C110.952 29.5125 110.897 29.4843 110.973 29.4843V33.4843C111.857 33.4843 112.649 33.1736 113.318 32.7479L111.17 29.3733ZM110.973 29.4843H103.71V33.4843H110.973V29.4843ZM103.71 29.4843C103.715 29.4843 103.795 29.4842 103.92 29.5213C104.052 29.5604 104.24 29.6431 104.426 29.8079C104.845 30.1806 104.893 30.6268 104.893 30.758H100.893C100.893 31.3734 101.077 32.1827 101.768 32.7975C102.415 33.3724 103.183 33.4843 103.71 33.4843V29.4843ZM104.893 30.758C104.893 30.9609 104.83 31.0463 104.865 30.9798L101.343 29.0834C101.097 29.5415 100.893 30.1112 100.893 30.758H104.893ZM104.832 31.0394L105.679 29.5867L102.224 27.5712L101.377 29.0239L104.832 31.0394ZM105.704 29.5428C105.742 29.4733 105.823 29.3654 106.024 29.2373L103.877 25.8626C103.19 26.2995 102.605 26.8776 102.199 27.6151L105.704 29.5428ZM105.99 29.2584C106.246 29.1027 106.321 29.1263 106.252 29.1263V25.1263C105.375 25.1263 104.583 25.4323 103.911 25.8416L105.99 29.2584ZM106.252 29.1263H126.589V25.1263H106.252V29.1263ZM126.589 29.1263C126.584 29.1263 126.504 29.1264 126.379 29.0893C126.247 29.0501 126.059 28.9675 125.874 28.8027C125.454 28.43 125.407 27.9838 125.407 27.8526H129.407C129.407 27.2372 129.223 26.4278 128.531 25.813C127.884 25.2381 127.116 25.1263 126.589 25.1263V29.1263ZM125.407 27.8526C125.407 27.6497 125.47 27.5642 125.434 27.6307L128.956 29.5271C129.202 29.0691 129.407 28.4994 129.407 27.8526H125.407ZM125.467 27.5712L123.772 30.4766L127.227 32.492L128.922 29.5867L125.467 27.5712ZM123.747 30.5205C123.722 30.5669 123.651 30.6713 123.431 30.8049L125.511 34.2217C126.219 33.7904 126.834 33.2088 127.252 32.4481L123.747 30.5205ZM149.429 16.8062L151.153 15.7918L151.125 15.7435L151.093 15.6968L149.429 16.8062ZM153.454 23.6459L151.731 24.6603L151.735 24.6676L151.739 24.6749L153.454 23.6459ZM153.273 25.8552L155.004 26.8567L155.009 26.8475L153.273 25.8552ZM144.133 41.653L142.402 40.6515L142.391 40.6702L142.381 40.6892L144.133 41.653ZM143.104 42.682L142.064 40.9736L142.047 40.984L142.03 40.9947L143.104 42.682ZM120.89 41.653L119.159 40.6513L119.144 40.6778L119.129 40.7048L120.89 41.653ZM128.456 28.5789L130.187 29.5807L130.198 29.5619L130.209 29.5428L128.456 28.5789ZM129.455 27.55L128.415 25.8416L128.398 25.8519L128.381 25.8626L129.455 27.55ZM142.166 26.7026L141.126 24.9942L141.109 25.0045L141.092 25.0152L142.166 26.7026ZM143.195 25.6736L141.465 24.6705L141.453 24.69L141.442 24.7098L143.195 25.6736ZM148.037 17.3207L149.767 18.3238L149.77 18.3201L148.037 17.3207ZM134.812 40.2004L133.08 39.2003L133.069 39.2183L133.059 39.2365L134.812 40.2004ZM140.683 30.0316L142.415 31.0317L142.43 31.006L142.444 30.9798L140.683 30.0316ZM137.778 30.0316L136.063 29.0026L136.054 29.017L136.046 29.0316L137.778 30.0316ZM131.906 40.2004L130.174 39.2003L130.16 39.226L130.145 39.2522L131.906 40.2004ZM133.783 41.2293L132.743 39.5209L132.726 39.5313L132.709 39.542L133.783 41.2293ZM147.706 17.8206L151.731 24.6603L155.178 22.6315L151.153 15.7918L147.706 17.8206ZM151.739 24.6749C151.671 24.5608 151.646 24.4711 151.638 24.4354C151.631 24.4011 151.636 24.4056 151.636 24.463H155.636C155.636 23.9134 155.544 23.2404 155.169 22.6169L151.739 24.6749ZM151.636 24.463C151.636 24.6316 151.6 24.7518 151.536 24.8629L155.009 26.8475C155.43 26.1111 155.636 25.3033 155.636 24.463H151.636ZM151.542 24.8536L142.402 40.6515L145.864 42.6546L155.004 26.8567L151.542 24.8536ZM142.381 40.6892C142.355 40.7356 142.284 40.84 142.064 40.9736L144.144 44.3904C144.853 43.9591 145.467 43.3775 145.886 42.6169L142.381 40.6892ZM142.03 40.9947C141.916 41.0674 141.845 41.0969 141.815 41.1071C141.787 41.1165 141.807 41.1057 141.863 41.1057V45.1057C142.744 45.1057 143.529 44.7826 144.178 44.3693L142.03 40.9947ZM141.863 41.1057H121.526V45.1057H141.863V41.1057ZM121.526 41.1057C121.526 41.1057 121.542 41.1057 121.57 41.1092C121.599 41.1127 121.645 41.1203 121.705 41.1373C121.825 41.1717 122.007 41.2473 122.192 41.4056C122.619 41.7719 122.678 42.2258 122.678 42.3794H118.678C118.678 43.0172 118.879 43.8342 119.589 44.4426C120.239 45.0005 121.004 45.1057 121.526 45.1057V41.1057ZM122.678 42.3794C122.678 42.5823 122.615 42.6678 122.651 42.6012L119.129 40.7048C118.883 41.1629 118.678 41.7326 118.678 42.3794H122.678ZM122.621 42.6548L130.187 29.5807L126.725 27.5772L119.159 40.6513L122.621 42.6548ZM130.209 29.5428C130.247 29.4733 130.327 29.3654 130.529 29.2373L128.381 25.8626C127.695 26.2995 127.11 26.8776 126.704 27.6151L130.209 29.5428ZM130.495 29.2584C130.751 29.1027 130.826 29.1263 130.756 29.1263V25.1263C129.88 25.1263 129.087 25.4323 128.415 25.8416L130.495 29.2584ZM130.756 29.1263H140.925V25.1263H130.756V29.1263ZM140.925 29.1263C141.806 29.1263 142.59 28.8031 143.24 28.3899L141.092 25.0152C140.978 25.088 140.906 25.1174 140.877 25.1276C140.849 25.137 140.868 25.1263 140.925 25.1263V29.1263ZM143.206 28.411C143.914 27.9796 144.529 27.3981 144.947 26.6374L141.442 24.7098C141.417 24.7562 141.346 24.8606 141.126 24.9942L143.206 28.411ZM144.925 26.6766L149.767 18.3238L146.307 16.3176L141.465 24.6705L144.925 26.6766ZM149.77 18.3201C149.855 18.1718 149.871 18.1899 149.784 18.2629C149.678 18.3519 149.397 18.5338 148.975 18.5338V14.5338C147.485 14.5338 146.658 15.7096 146.305 16.3213L149.77 18.3201ZM148.975 18.5338C148.715 18.5338 148.441 18.4636 148.196 18.3169C147.965 18.1783 147.831 18.0142 147.765 17.9156L151.093 15.6968C150.687 15.0878 149.967 14.5338 148.975 14.5338V18.5338ZM136.544 41.2004L142.415 31.0317L138.951 29.0316L133.08 39.2003L136.544 41.2004ZM142.444 30.9798C142.691 30.5218 142.895 29.952 142.895 29.3053H138.895C138.895 29.1024 138.958 29.0169 138.922 29.0834L142.444 30.9798ZM142.895 29.3053C142.895 28.6899 142.711 27.8805 142.019 27.2657C141.373 26.6908 140.604 26.5789 140.078 26.5789V30.5789C140.072 30.5789 139.992 30.5791 139.867 30.5419C139.735 30.5028 139.547 30.4202 139.362 30.2553C138.943 29.8827 138.895 29.4365 138.895 29.3053H142.895ZM140.078 26.5789C139.194 26.5789 138.402 26.8896 137.733 27.3153L139.88 30.69C140.099 30.5507 140.154 30.5789 140.078 30.5789V26.5789ZM137.733 27.3153C137.058 27.7446 136.483 28.3028 136.063 29.0026L139.493 31.0606C139.557 30.9534 139.667 30.8256 139.88 30.69L137.733 27.3153ZM136.046 29.0316L130.174 39.2003L133.638 41.2004L139.51 31.0317L136.046 29.0316ZM130.145 39.2522C129.899 39.7102 129.695 40.2799 129.695 40.9267H133.695C133.695 41.1296 133.632 41.2151 133.667 41.1486L130.145 39.2522ZM129.695 40.9267C129.695 41.5421 129.878 42.3515 130.57 42.9663C131.217 43.5412 131.985 43.653 132.512 43.653V39.653C132.517 39.653 132.597 39.6529 132.722 39.69C132.854 39.7292 133.042 39.8118 133.228 39.9766C133.647 40.3493 133.695 40.7955 133.695 40.9267H129.695ZM132.512 43.653C133.395 43.653 134.188 43.3423 134.857 42.9167L132.709 39.542C132.49 39.6813 132.435 39.653 132.512 39.653V43.653ZM134.823 42.9377C135.531 42.5064 136.146 41.9248 136.564 41.1642L133.059 39.2365C133.034 39.2829 132.962 39.3873 132.743 39.5209L134.823 42.9377Z" fill="#0A0A0A" mask="url(#path-1-outside-1_103_889)"/>
</svg>
