<svg width="15" height="17" viewBox="0 0 15 17" fill="none" xmlns="http://www.w3.org/2000/svg">
<path d="M2.9141 10.9565C4.27082 10.9565 5.37067 9.85664 5.37067 8.49991C5.37067 7.14318 4.27082 6.04333 2.9141 6.04333C1.55737 6.04333 0.45752 7.14318 0.45752 8.49991C0.45752 9.85664 1.55737 10.9565 2.9141 10.9565Z" stroke="white" stroke-width="0.745161" stroke-linecap="round" stroke-linejoin="round"/>
<path d="M11.5122 16.484C12.869 16.484 13.9688 15.3841 13.9688 14.0274C13.9688 12.6706 12.869 11.5708 11.5122 11.5708C10.1555 11.5708 9.05566 12.6706 9.05566 14.0274C9.05566 15.3841 10.1555 16.484 11.5122 16.484Z" stroke="white" stroke-width="0.745161" stroke-linecap="round" stroke-linejoin="round"/>
<path d="M11.5122 5.42926C12.869 5.42926 13.9688 4.32942 13.9688 2.97269C13.9688 1.61596 12.869 0.516113 11.5122 0.516113C10.1555 0.516113 9.05566 1.61596 9.05566 2.97269C9.05566 4.32942 10.1555 5.42926 11.5122 5.42926Z" stroke="white" stroke-width="0.745161" stroke-linecap="round" stroke-linejoin="round"/>
<path d="M9.44714 4.3009L4.97925 7.17203" stroke="white" stroke-width="0.745161" stroke-linecap="round" stroke-linejoin="round"/>
<path d="M4.97925 9.82825L9.44714 12.6994" stroke="white" stroke-width="0.745161" stroke-linecap="round" stroke-linejoin="round"/>
</svg>
