<svg width="16" height="17" viewBox="0 0 16 17" fill="none" xmlns="http://www.w3.org/2000/svg">
<path d="M3.9141 10.9565C5.27082 10.9565 6.37067 9.85664 6.37067 8.49991C6.37067 7.14318 5.27082 6.04333 3.9141 6.04333C2.55737 6.04333 1.45752 7.14318 1.45752 8.49991C1.45752 9.85664 2.55737 10.9565 3.9141 10.9565Z" stroke="white" stroke-linecap="round" stroke-linejoin="round"/>
<path d="M12.5122 16.484C13.869 16.484 14.9688 15.3841 14.9688 14.0274C14.9688 12.6706 13.869 11.5708 12.5122 11.5708C11.1555 11.5708 10.0557 12.6706 10.0557 14.0274C10.0557 15.3841 11.1555 16.484 12.5122 16.484Z" stroke="white" stroke-linecap="round" stroke-linejoin="round"/>
<path d="M12.5122 5.42926C13.869 5.42926 14.9688 4.32942 14.9688 2.97269C14.9688 1.61596 13.869 0.516113 12.5122 0.516113C11.1555 0.516113 10.0557 1.61596 10.0557 2.97269C10.0557 4.32942 11.1555 5.42926 12.5122 5.42926Z" stroke="white" stroke-linecap="round" stroke-linejoin="round"/>
<path d="M10.4471 4.3009L5.97925 7.17203" stroke="white" stroke-linecap="round" stroke-linejoin="round"/>
<path d="M5.97925 9.82825L10.4471 12.6994" stroke="white" stroke-linecap="round" stroke-linejoin="round"/>
</svg>
