<svg width="10" height="10" viewBox="0 0 10 10" fill="none" xmlns="http://www.w3.org/2000/svg">
<path d="M5.36036 8.31081L5.30027 9.27224C5.29686 9.32683 5.2174 9.3293 5.21062 9.27502L5.09009 8.31081L4.86556 7.12081C4.8651 7.11835 4.86443 7.11594 4.86357 7.11359L4.55283 6.27016C4.55067 6.26429 4.54731 6.25894 4.54296 6.25444L3.92428 5.61366C3.92073 5.60999 3.91659 5.60694 3.91202 5.60466L3.02332 5.16031C3.0198 5.15855 3.01606 5.15726 3.01221 5.15647L2.03051 4.95567C2.02819 4.95519 2.02584 4.9549 2.02348 4.9548L0 4.86487L2.02703 4.70721L3.01124 4.52826C3.01573 4.52744 3.02008 4.52595 3.02412 4.52382L3.91285 4.05724C3.91687 4.05513 3.92055 4.05242 3.92376 4.04921L4.54394 3.42904C4.54765 3.42532 4.55069 3.42099 4.55291 3.41623L4.86322 2.75128C4.86431 2.74893 4.86521 2.74649 4.86588 2.74398L5.08909 1.91812C5.08975 1.91565 5.09021 1.91314 5.09045 1.91059L5.27027 0L5.36016 1.91009C5.36029 1.91297 5.3607 1.91582 5.36138 1.91862L5.56158 2.74165C5.56256 2.7457 5.5641 2.74959 5.56616 2.75321L5.94314 3.41847C5.945 3.42176 5.94727 3.4248 5.9499 3.42753L6.54869 4.04849C6.55224 4.05217 6.55639 4.05522 6.56097 4.05751L7.49374 4.5239C7.49789 4.52597 7.50233 4.52739 7.50691 4.52811L8.64865 4.70721L9.51161 4.80789C9.56605 4.81424 9.56407 4.89393 9.50938 4.89757L8.64865 4.95496L7.50602 5.1566C7.50202 5.1573 7.49814 5.15854 7.49448 5.16029L6.56181 5.60442C6.55668 5.60686 6.55207 5.61024 6.5482 5.61439L5.95104 6.25579C5.94767 6.25941 5.94491 6.26357 5.94289 6.26809L5.5654 7.1119C5.56385 7.11536 5.56274 7.11901 5.56211 7.12275L5.36036 8.31081Z" fill="#D0ABC8" stroke="#D0ABC8" stroke-width="0.0900901"/>
</svg>
