<svg width="18" height="12" viewBox="0 0 18 12" fill="none" xmlns="http://www.w3.org/2000/svg">
<g clip-path="url(#clip0_63_92)">
<path d="M16.6816 1.86255C16.4853 1.12903 15.9088 0.552593 15.1752 0.35624C13.8471 1.06636e-07 8.51889 0 8.51889 0C8.51889 0 3.19073 1.06636e-07 1.86254 0.35624C1.12903 0.552593 0.552593 1.12903 0.35624 1.86255C1.06636e-07 3.19073 0 5.96352 0 5.96352C0 5.96352 1.06636e-07 8.73631 0.35624 10.0645C0.552593 10.798 1.12903 11.3745 1.86254 11.5708C3.19073 11.927 8.51889 11.927 8.51889 11.927C8.51889 11.927 13.8471 11.927 15.1752 11.5708C15.9088 11.3745 16.4853 10.798 16.6816 10.0645C17.0378 8.73631 17.0378 5.96352 17.0378 5.96352C17.0378 5.96352 17.0364 3.19073 16.6816 1.86255Z" fill="#FF00C8"/>
<path d="M6.81372 8.51898L11.2401 5.96361L6.81372 3.4082V8.51898Z" fill="black"/>
</g>
<defs>
<clipPath id="clip0_63_92">
<rect width="17.1131" height="12" rx="1.6" fill="white"/>
</clipPath>
</defs>
</svg>
